<svg xmlns="http://www.w3.org/2000/svg" width="65" height="65" viewBox="0 0 65 65" fill="none"><circle cx="32.5" cy="32.5" r="32.5" fill="#006DF9"></circle><path d="M19.0597 24.0909L23.63 38.4574H23.8054L28.3849 24.0909H32.8168L26.2983 43H21.1463L14.6186 24.0909H19.0597ZM45.3505 29.5291C45.2766 28.7843 44.9596 28.2057 44.3995 27.7933C43.8394 27.3809 43.0792 27.1747 42.119 27.1747C41.4665 27.1747 40.9156 27.267 40.4663 27.4517C40.0169 27.6302 39.6722 27.8795 39.4322 28.1996C39.1983 28.5196 39.0813 28.8828 39.0813 29.2891C39.069 29.6276 39.1398 29.9231 39.2937 30.1754C39.4537 30.4278 39.6722 30.6463 39.9492 30.831C40.2262 31.0095 40.5463 31.1664 40.9094 31.3018C41.2726 31.4311 41.6604 31.5419 42.0728 31.6342L43.7717 32.0405C44.5965 32.2251 45.3536 32.4714 46.043 32.7791C46.7324 33.0869 47.3294 33.4654 47.8342 33.9148C48.3389 34.3641 48.7298 34.8935 49.0067 35.5028C49.2899 36.1122 49.4345 36.8108 49.4407 37.5987C49.4345 38.7559 49.1391 39.7592 48.5543 40.6087C47.9757 41.4519 47.1386 42.1075 46.043 42.5753C44.9535 43.0369 43.6393 43.2678 42.1005 43.2678C40.574 43.2678 39.2444 43.0339 38.1119 42.5661C36.9854 42.0982 36.1052 41.4058 35.4712 40.4886C34.8434 39.5653 34.5141 38.4235 34.4833 37.0632H38.3519C38.395 37.6972 38.5766 38.2266 38.8967 38.6513C39.2229 39.0698 39.6568 39.3868 40.1985 39.6023C40.7463 39.8116 41.3649 39.9162 42.0543 39.9162C42.7314 39.9162 43.3192 39.8177 43.8178 39.6207C44.3226 39.4238 44.7134 39.1499 44.9904 38.799C45.2674 38.4482 45.4059 38.045 45.4059 37.5895C45.4059 37.1648 45.2797 36.8078 45.0273 36.5185C44.7811 36.2292 44.418 35.983 43.9379 35.7798C43.4639 35.5767 42.8822 35.392 42.1928 35.2259L40.1339 34.7088C38.5397 34.321 37.2809 33.7147 36.3576 32.8899C35.4343 32.0651 34.9757 30.9541 34.9819 29.5568C34.9757 28.4119 35.2804 27.4117 35.896 26.5561C36.5176 25.7005 37.3701 25.0327 38.4535 24.5526C39.5368 24.0724 40.7679 23.8324 42.1467 23.8324C43.5501 23.8324 44.775 24.0724 45.8214 24.5526C46.8739 25.0327 47.6926 25.7005 48.2773 26.5561C48.8621 27.4117 49.1637 28.4027 49.1822 29.5291H45.3505Z" fill="white"></path></svg>