<svg xmlns="http://www.w3.org/2000/svg" width="511" height="191" viewBox="0 0 511 191" fill="none"><path d="M133.903 66.762C133.903 103.635 103.927 133.524 66.9516 133.524C55.3582 133.524 44.4531 130.587 34.9447 125.416C14.1255 114.095 0 92.074 0 66.762C0 29.8908 29.9752 0 66.951 0C103.927 0 133.903 29.8908 133.903 66.762Z" fill="#20B276"></path><path d="M93.6733 85.751C86.5889 93.0312 77.9913 96.6739 67.8826 96.6739C61.713 96.6739 55.9808 95.6325 50.6071 92.6075L50.5424 131.374L50.0332 131.237L49.7181 131.156L49.346 130.955L49.1706 130.638L49.0091 130.281L49.1882 130.057L31.4604 108.979L31.4656 59.153C31.4656 48.7709 35.0073 39.9534 42.0923 32.699C49.1757 25.4441 57.7728 21.8174 67.8826 21.8174C77.9913 21.8174 86.5884 25.457 93.6733 32.7387C100.757 40.0195 104.3 48.8555 104.3 59.2454C104.3 69.6362 100.757 78.4707 93.6733 85.751ZM80.1507 46.6257C76.787 43.1657 72.6978 41.4365 67.8826 41.4365C63.0663 41.4365 58.977 43.1657 55.6144 46.6257C52.2507 50.0857 50.5688 54.2914 50.5688 59.2464C50.5688 64.1998 52.2502 68.4055 55.6144 71.8655C58.977 75.326 63.0663 77.0563 67.8826 77.0563C72.6978 77.0563 76.787 75.326 80.1507 71.8655C83.5139 68.4055 85.1958 64.1998 85.1958 59.2464C85.1958 54.2914 83.5139 50.0852 80.1507 46.6257Z" fill="#147F52"></path><path d="M92.2799 84.3747C85.1954 91.6559 76.5989 95.2976 66.4897 95.2976C60.3201 95.2976 54.5496 93.7851 49.1765 90.7601L49.1708 131.145C49.1708 131.145 47.8631 130.786 46.161 130.238C45.7413 130.103 45.3175 129.958 44.8735 129.802C44.6624 129.727 44.5594 129.683 44.342 129.621C43.7852 129.461 43.0794 129.152 42.5355 128.941C40.7077 128.231 39.2266 127.555 39.1909 127.538C39.1552 127.521 33.9234 125.033 33.3334 124.665C32.8051 124.336 32.3347 124.078 31.9316 123.789C31.8027 123.698 31.7054 123.632 31.5833 123.548C30.6249 122.891 30.0893 122.514 30.0893 122.514L30.0732 57.7777C30.0732 47.3951 33.615 38.5777 40.6999 31.3238C47.7839 24.0683 56.3805 20.4421 66.4902 20.4421C76.5994 20.4421 85.196 24.0817 92.2804 31.3635C99.3644 38.6442 102.908 47.4803 102.908 57.8696C102.907 68.2594 99.3639 77.0939 92.2799 84.3747ZM78.7578 45.2495C75.3936 41.7894 71.3049 40.0602 66.4892 40.0602C61.6729 40.0602 57.5836 41.7894 54.221 45.2495C50.8573 48.7095 49.1759 52.9152 49.1759 57.8696C49.1759 62.8235 50.8573 67.0292 54.221 70.4887C57.5836 73.9503 61.6729 75.68 66.4892 75.68C71.3044 75.68 75.3936 73.9503 78.7578 70.4887C82.1205 67.0292 83.8029 62.8235 83.8029 57.8696C83.8029 52.9152 82.1205 48.7095 78.7578 45.2495Z" fill="white"></path><path d="M150.69 111.452V25.2583C150.69 23.9837 151.175 22.8629 152.145 21.8953C153.113 20.9283 154.236 20.4442 155.515 20.4442H179.505C187.479 20.4442 194.276 23.2494 199.893 28.8571C205.51 34.4649 208.319 41.2497 208.319 49.2105C208.319 57.1281 205.506 63.9015 199.882 69.532C194.256 75.1624 187.451 77.9764 179.466 77.9764H165.038C161.862 77.9764 160.273 76.3736 160.273 73.1659V111.455C160.273 114.663 158.676 116.266 155.482 116.266C152.287 116.266 150.69 114.662 150.69 111.452ZM160.273 73.1664C160.273 70.0031 161.862 68.4215 165.04 68.4215H179.472C184.767 68.4215 189.303 66.5483 193.076 62.8013C196.85 59.0539 198.737 54.5345 198.737 49.2441C198.737 43.9547 196.85 39.425 193.076 35.6548C189.303 31.8862 184.767 30.0007 179.472 30.0007H160.273V73.1664Z" fill="#3B3938"></path><path d="M262.84 111.45C262.84 114.661 261.232 116.266 258.016 116.266C254.8 116.266 253.214 114.663 253.258 111.455C248.984 114.663 244.181 116.266 238.851 116.266C232.242 116.266 226.58 113.927 221.866 109.248C217.151 104.569 214.794 98.9336 214.794 92.3433C214.794 85.7531 217.151 80.1082 221.866 75.4066C226.58 70.706 232.242 68.355 238.851 68.355C244.181 68.355 248.984 69.9593 253.258 73.166C253.258 69.1946 251.847 65.7965 249.029 62.9707C246.208 60.1459 242.816 58.7335 238.851 58.7335C236.075 58.7335 233.288 59.7006 230.491 61.6331C227.692 63.5672 225.964 64.5332 225.303 64.5332C223.981 64.5332 222.825 64.0368 221.833 63.0439C220.842 62.0516 220.346 60.8931 220.346 59.569C220.346 58.5106 220.852 57.3861 221.866 56.1936C225.788 51.5168 231.449 49.1781 238.851 49.1781C245.46 49.1781 251.11 51.5209 255.803 56.2039C260.495 60.8874 262.841 66.5277 262.841 73.1247V111.45H262.84ZM253.258 92.3108C253.258 88.3482 251.844 84.9573 249.018 82.1388C246.192 79.3207 242.791 77.9109 238.818 77.9109C234.843 77.9109 231.443 79.3207 228.617 82.1388C225.791 84.9573 224.378 88.3482 224.378 92.3108C224.378 96.274 225.791 99.6648 228.617 102.483C231.443 105.301 234.844 106.71 238.818 106.71C242.791 106.71 246.192 105.301 249.018 102.483C251.844 99.6648 253.258 96.274 253.258 92.3108Z" fill="#3B3938"></path><path d="M342.806 82.6893C342.806 91.9687 339.524 99.8841 332.959 106.438C326.393 112.991 318.463 116.267 309.167 116.267C299.915 116.267 292.006 112.992 285.441 106.441C278.876 99.8903 275.594 91.9769 275.594 82.6996V25.2583C275.594 22.0496 277.202 20.4442 280.419 20.4442C283.591 20.4442 285.177 22.0506 285.177 25.2635V59.2608C291.786 52.539 299.782 49.1775 309.167 49.1775C318.463 49.1775 326.393 52.4543 332.959 59.007C339.524 65.5606 342.806 73.4544 342.806 82.6893ZM333.223 82.6893C333.223 76.1341 330.865 70.5037 326.152 65.7954C321.437 61.0876 315.776 58.7335 309.167 58.7335C302.602 58.7335 296.963 61.0876 292.249 65.7954C287.534 70.5037 285.177 76.1341 285.177 82.6893C285.177 89.2884 287.534 94.9415 292.249 99.6498C296.963 104.358 302.602 106.711 309.167 106.711C315.776 106.711 321.437 104.358 326.152 99.6498C330.865 94.9415 333.223 89.2884 333.223 82.6893Z" fill="#3B3938"></path><path d="M419.667 82.6893C419.667 91.9687 416.384 99.8841 409.82 106.438C403.254 112.991 395.324 116.267 386.028 116.267C376.776 116.267 368.867 112.992 362.302 106.441C355.737 99.8903 352.455 91.9769 352.455 82.6996V25.2583C352.455 22.0496 354.063 20.4442 357.28 20.4442C360.452 20.4442 362.037 22.0506 362.037 25.2635V59.2608C368.646 52.539 376.643 49.1775 386.027 49.1775C395.324 49.1775 403.254 52.4543 409.82 59.007C416.384 65.5606 419.667 73.4544 419.667 82.6893ZM410.084 82.6893C410.084 76.1341 407.726 70.5037 403.012 65.7954C398.298 61.0876 392.637 58.7335 386.028 58.7335C379.462 58.7335 373.823 61.0876 369.11 65.7954C364.395 70.5037 362.038 76.1341 362.038 82.6893C362.038 89.2884 364.395 94.9415 369.11 99.6498C373.823 104.358 379.463 106.711 386.028 106.711C392.637 106.711 398.298 104.358 403.012 99.6498C407.727 94.9415 410.084 89.2884 410.084 82.6893Z" fill="#3B3938"></path><path d="M453.306 111.455C453.306 114.663 451.697 116.266 448.482 116.266C443.237 116.266 438.733 114.387 434.966 110.627C431.2 106.869 429.316 102.351 429.316 97.0748V25.2583C429.316 22.0496 430.924 20.4442 434.14 20.4442C437.313 20.4442 438.898 22.0496 438.898 25.2593V97.0815C438.898 99.7195 439.845 101.984 441.74 103.875C443.634 105.765 445.881 106.711 448.481 106.711C451.697 106.711 453.306 108.292 453.306 111.455Z" fill="#3B3938"></path><path d="M511 121.061C511 127.612 508.654 133.239 503.961 137.944C499.269 142.646 493.618 145 487.009 145C482.867 145 478.881 143.922 475.048 141.771C471.082 139.573 468.151 136.696 466.258 133.137C465.773 132.17 465.531 131.314 465.531 130.568C465.531 129.292 466.048 128.184 467.084 127.24C468.119 126.294 469.275 125.823 470.554 125.823C471.654 125.823 473.648 127.426 476.535 130.634C479.42 133.84 482.912 135.444 487.01 135.444C490.975 135.444 494.368 134.037 497.187 131.227C500.006 128.414 501.417 125.032 501.417 121.078V111.456C497.143 114.664 492.341 116.267 487.01 116.267C480.401 116.267 474.751 113.925 470.058 109.242C465.365 104.559 463.02 98.9181 463.02 92.3206V53.9287C463.02 50.7623 464.627 49.1786 467.844 49.1786C471.016 49.1786 472.602 50.7623 472.602 53.9287V92.3278C472.602 96.2874 474.012 99.6741 476.832 102.489C479.651 105.305 483.044 106.711 487.009 106.711C490.974 106.711 494.367 105.305 497.187 102.489C500.006 99.6741 501.417 96.2868 501.417 92.3278V53.9287C501.417 50.7623 503.024 49.1786 506.241 49.1786C509.413 49.1786 510.999 50.7613 510.999 53.9266V121.061H511Z" fill="#3B3938"></path><path d="M174.525 171.249C174.525 173.932 173.571 176.229 171.662 178.137C169.754 180.046 167.458 181 164.774 181C163.074 181 161.449 180.56 159.898 179.68C158.303 178.786 157.11 177.6 156.32 176.124C156.156 175.811 156.074 175.528 156.074 175.274C156.074 174.827 156.245 174.447 156.588 174.134C156.946 173.821 157.348 173.664 157.796 173.664C158.258 173.664 158.705 173.94 159.138 174.492C159.302 174.745 159.563 175.11 159.92 175.588C161.173 177.034 162.791 177.757 164.774 177.757C166.563 177.757 168.091 177.123 169.359 175.856C170.641 174.574 171.282 173.038 171.282 171.249C171.282 169.459 170.641 167.931 169.359 166.664C168.091 165.381 166.563 164.74 164.774 164.74C162.537 164.74 160.621 163.95 159.026 162.369C157.445 160.774 156.655 158.858 156.655 156.622C156.655 154.385 157.445 152.476 159.026 150.896C160.621 149.301 162.537 148.503 164.774 148.503C166.19 148.503 167.547 148.868 168.844 149.599C170.156 150.329 171.141 151.306 171.797 152.529C171.961 152.842 172.043 153.132 172.043 153.401C172.043 153.833 171.871 154.206 171.528 154.519C171.185 154.832 170.79 154.989 170.343 154.989C169.985 154.989 169.307 154.452 168.308 153.378C167.309 152.29 166.131 151.746 164.774 151.746C163.432 151.746 162.284 152.223 161.329 153.177C160.375 154.131 159.898 155.28 159.898 156.622C159.898 157.963 160.375 159.112 161.329 160.066C162.284 161.02 163.432 161.497 164.774 161.497C167.458 161.497 169.754 162.451 171.662 164.36C173.571 166.269 174.525 168.565 174.525 171.249ZM194.024 172.881C194.024 175.118 193.226 177.034 191.631 178.629C190.05 180.21 188.142 181 185.905 181C183.669 181 181.753 180.21 180.157 178.629C178.577 177.034 177.787 175.118 177.787 172.881V159.865C177.787 158.791 178.331 158.254 179.419 158.254C180.493 158.254 181.03 158.791 181.03 159.865V172.881C181.03 174.223 181.507 175.371 182.461 176.326C183.415 177.28 184.563 177.757 185.905 177.757C187.247 177.757 188.395 177.28 189.35 176.326C190.304 175.371 190.781 174.223 190.781 172.881V159.865C190.781 158.791 191.325 158.254 192.414 158.254C193.487 158.254 194.024 158.791 194.024 159.865V172.881ZM221.099 169.616C221.099 172.762 219.988 175.446 217.766 177.668C215.545 179.889 212.861 181 209.715 181C206.584 181 203.907 179.889 201.686 177.668C199.464 175.446 198.353 172.762 198.353 169.616V150.135C198.353 149.047 198.897 148.503 199.986 148.503C201.059 148.503 201.596 149.047 201.596 150.135V161.654C203.833 159.387 206.539 158.254 209.715 158.254C212.861 158.254 215.545 159.365 217.766 161.587C219.988 163.808 221.099 166.485 221.099 169.616ZM217.856 169.616C217.856 167.394 217.058 165.486 215.463 163.89C213.867 162.295 211.951 161.497 209.715 161.497C207.493 161.497 205.585 162.295 203.989 163.89C202.394 165.486 201.596 167.394 201.596 169.616C201.596 171.852 202.394 173.768 203.989 175.364C205.585 176.959 207.493 177.757 209.715 177.757C211.951 177.757 213.867 176.959 215.463 175.364C217.058 173.768 217.856 171.852 217.856 169.616ZM237.549 173.686C237.549 175.699 236.826 177.422 235.379 178.853C233.948 180.284 232.233 181 230.235 181C228.729 181 227.335 180.568 226.053 179.703C224.785 178.823 223.898 177.69 223.391 176.303C223.302 176.065 223.257 175.848 223.257 175.655C223.257 175.207 223.429 174.835 223.772 174.536C224.114 174.223 224.51 174.067 224.957 174.067C225.464 174.067 225.934 174.387 226.366 175.028C227.037 176.042 227.454 176.631 227.618 176.795C228.274 177.436 229.147 177.757 230.235 177.757C231.353 177.757 232.308 177.362 233.098 176.572C233.888 175.766 234.283 174.805 234.283 173.686C234.283 171.211 232.897 169.854 230.123 169.616C228.453 169.482 227.104 168.93 226.075 167.961C224.972 166.932 224.42 165.59 224.42 163.935C224.42 162.369 224.979 161.035 226.098 159.932C227.216 158.813 228.558 158.254 230.123 158.254C232.39 158.254 234.022 159.194 235.021 161.072C235.185 161.385 235.267 161.669 235.267 161.922C235.267 162.369 235.096 162.75 234.753 163.063C234.41 163.376 234.015 163.532 233.568 163.532C233.12 163.532 232.621 163.197 232.069 162.526C231.518 161.84 230.869 161.497 230.123 161.497C229.452 161.497 228.878 161.743 228.401 162.235C227.924 162.712 227.686 163.279 227.686 163.935C227.686 165.396 228.535 166.209 230.235 166.373C232.397 166.582 234.134 167.297 235.446 168.52C236.848 169.832 237.549 171.554 237.549 173.686ZM259.638 162.705C259.638 163.152 259.467 163.547 259.124 163.89C258.796 164.218 258.408 164.382 257.961 164.382C257.826 164.382 257.021 163.905 255.545 162.951C254.084 161.982 252.6 161.497 251.094 161.497C248.858 161.497 246.942 162.295 245.346 163.89C243.766 165.486 242.976 167.394 242.976 169.616C242.976 171.852 243.766 173.768 245.346 175.364C246.942 176.959 248.858 177.757 251.094 177.757C252.585 177.757 254.062 177.28 255.523 176.326C256.999 175.356 257.811 174.872 257.961 174.872C258.393 174.872 258.773 175.043 259.101 175.386C259.444 175.729 259.616 176.117 259.616 176.549C259.616 176.907 259.452 177.287 259.124 177.69C258.259 178.704 257.036 179.516 255.456 180.128C253.98 180.709 252.526 181 251.094 181C247.963 181 245.279 179.889 243.043 177.668C240.821 175.446 239.71 172.762 239.71 169.616C239.71 166.485 240.821 163.808 243.043 161.587C245.279 159.365 247.963 158.254 251.094 158.254C252.526 158.254 253.98 158.545 255.456 159.126C257.036 159.753 258.259 160.573 259.124 161.587C259.467 161.974 259.638 162.347 259.638 162.705ZM276.36 162.369C276.36 162.802 276.181 163.175 275.823 163.488C275.48 163.801 275.093 163.957 274.66 163.957C274.228 163.957 273.661 163.547 272.961 162.727C272.26 161.907 271.432 161.497 270.478 161.497C269.583 161.497 268.815 161.818 268.174 162.459C267.548 163.1 267.235 163.861 267.235 164.74V179.367C267.235 180.456 266.691 181 265.602 181C264.514 181 263.97 180.456 263.97 179.367V159.865C263.97 158.791 264.514 158.254 265.602 158.254C266.333 158.254 266.832 158.567 267.101 159.194C268.13 158.567 269.255 158.254 270.478 158.254C271.596 158.254 272.685 158.552 273.743 159.149C274.817 159.745 275.607 160.528 276.114 161.497C276.278 161.825 276.36 162.116 276.36 162.369ZM284.77 150.963C284.77 151.634 284.523 152.208 284.031 152.685C283.554 153.147 282.98 153.378 282.309 153.378C281.638 153.378 281.057 153.147 280.565 152.685C280.088 152.208 279.849 151.634 279.849 150.963C279.849 150.292 280.088 149.718 280.565 149.241C281.057 148.749 281.638 148.503 282.309 148.503C282.98 148.503 283.554 148.749 284.031 149.241C284.523 149.718 284.77 150.292 284.77 150.963ZM283.942 159.865V179.367C283.942 180.456 283.398 181 282.309 181C281.221 181 280.677 180.456 280.677 179.367V159.865C280.677 158.791 281.221 158.254 282.309 158.254C283.398 158.254 283.942 158.791 283.942 159.865ZM313.195 169.616C313.195 172.762 312.076 175.446 309.84 177.668C307.618 179.889 304.942 181 301.811 181C298.62 181 295.914 179.859 293.692 177.578V189.119C293.692 190.207 293.148 190.751 292.059 190.751C290.971 190.751 290.427 190.207 290.427 189.119V159.865C290.427 158.791 290.971 158.254 292.059 158.254C292.894 158.254 293.409 158.657 293.603 159.462C293.677 159.76 293.707 160.491 293.692 161.654C295.914 159.387 298.62 158.254 301.811 158.254C304.942 158.254 307.618 159.365 309.84 161.587C312.076 163.808 313.195 166.485 313.195 169.616ZM309.929 169.616C309.929 167.394 309.132 165.486 307.536 163.89C305.956 162.295 304.047 161.497 301.811 161.497C299.574 161.497 297.658 162.295 296.063 163.89C294.482 165.486 293.692 167.394 293.692 169.616C293.692 171.852 294.482 173.768 296.063 175.364C297.658 176.959 299.574 177.757 301.811 177.757C304.047 177.757 305.956 176.959 307.536 175.364C309.132 173.768 309.929 171.852 309.929 169.616ZM331.583 177.824C331.583 178.927 331.017 179.762 329.884 180.329C328.989 180.776 327.93 181 326.708 181C324.918 181 323.383 180.366 322.1 179.099C320.833 177.817 320.199 176.281 320.199 174.492V161.497H316.956C315.868 161.497 315.324 160.953 315.324 159.865C315.324 158.791 315.868 158.254 316.956 158.254H320.199V150.135C320.199 149.047 320.743 148.503 321.832 148.503C322.92 148.503 323.465 149.047 323.465 150.135V158.254H326.708C327.796 158.254 328.34 158.791 328.34 159.865C328.34 160.953 327.796 161.497 326.708 161.497H323.465V174.492C323.465 175.386 323.778 176.154 324.404 176.795C325.045 177.436 325.813 177.757 326.708 177.757C327.438 177.757 328.139 177.489 328.81 176.952C329.481 176.415 329.973 176.147 330.286 176.147C331.151 176.147 331.583 176.706 331.583 177.824ZM339.969 150.963C339.969 151.634 339.723 152.208 339.231 152.685C338.754 153.147 338.179 153.378 337.509 153.378C336.838 153.378 336.256 153.147 335.764 152.685C335.287 152.208 335.048 151.634 335.048 150.963C335.048 150.292 335.287 149.718 335.764 149.241C336.256 148.749 336.838 148.503 337.509 148.503C338.179 148.503 338.754 148.749 339.231 149.241C339.723 149.718 339.969 150.292 339.969 150.963ZM339.141 159.865V179.367C339.141 180.456 338.597 181 337.509 181C336.42 181 335.876 180.456 335.876 179.367V159.865C335.876 158.791 336.42 158.254 337.509 158.254C338.597 158.254 339.141 158.791 339.141 159.865ZM366.225 169.616C366.225 172.762 365.106 175.446 362.87 177.668C360.648 179.889 357.972 181 354.84 181C351.709 181 349.025 179.889 346.789 177.668C344.567 175.446 343.456 172.762 343.456 169.616C343.456 166.485 344.567 163.808 346.789 161.587C349.025 159.365 351.709 158.254 354.84 158.254C357.972 158.254 360.648 159.365 362.87 161.587C365.106 163.808 366.225 166.485 366.225 169.616ZM362.959 169.616C362.959 167.394 362.161 165.486 360.566 163.89C358.986 162.295 357.077 161.497 354.84 161.497C352.604 161.497 350.688 162.295 349.092 163.89C347.512 165.486 346.722 167.394 346.722 169.616C346.722 171.852 347.512 173.768 349.092 175.364C350.688 176.959 352.604 177.757 354.84 177.757C357.077 177.757 358.986 176.959 360.566 175.364C362.161 173.768 362.959 171.852 362.959 169.616ZM386.819 179.367C386.819 180.456 386.275 181 385.187 181C384.113 181 383.576 180.456 383.576 179.367V166.373C383.576 165.031 383.092 163.883 382.122 162.929C381.168 161.974 380.028 161.497 378.7 161.497C377.359 161.497 376.21 161.974 375.256 162.929C374.302 163.883 373.825 165.031 373.825 166.373V179.367C373.825 180.456 373.281 181 372.192 181C371.104 181 370.559 180.456 370.559 179.367V159.865C370.559 158.791 371.104 158.254 372.192 158.254C373.281 158.254 373.825 158.791 373.825 159.865C375.256 158.791 376.881 158.254 378.7 158.254C380.922 158.254 382.831 159.052 384.426 160.647C386.021 162.228 386.819 164.136 386.819 166.373V179.367ZM422.562 171.249C422.562 173.947 421.608 176.251 419.699 178.16C417.791 180.053 415.495 181 412.811 181H404.692C404.26 181 403.879 180.836 403.551 180.508C403.223 180.18 403.059 179.8 403.059 179.367V150.135C403.059 149.703 403.223 149.323 403.551 148.995C403.879 148.667 404.26 148.503 404.692 148.503H412.811C415.047 148.503 416.963 149.301 418.559 150.896C420.154 152.476 420.952 154.385 420.952 156.622C420.952 159.201 419.938 161.311 417.91 162.951C421.012 164.859 422.562 167.625 422.562 171.249ZM417.687 156.622C417.687 155.28 417.209 154.131 416.255 153.177C415.301 152.223 414.153 151.746 412.811 151.746H406.325V161.497H412.811C414.153 161.497 415.301 161.02 416.255 160.066C417.209 159.112 417.687 157.963 417.687 156.622ZM419.319 171.249C419.319 169.459 418.678 167.931 417.396 166.664C416.128 165.381 414.6 164.74 412.811 164.74H406.325V177.757H412.811C414.6 177.757 416.128 177.123 417.396 175.856C418.678 174.574 419.319 173.038 419.319 171.249ZM430.969 150.963C430.969 151.634 430.723 152.208 430.231 152.685C429.754 153.147 429.179 153.378 428.509 153.378C427.838 153.378 427.256 153.147 426.764 152.685C426.287 152.208 426.048 151.634 426.048 150.963C426.048 150.292 426.287 149.718 426.764 149.241C427.256 148.749 427.838 148.503 428.509 148.503C429.179 148.503 429.754 148.749 430.231 149.241C430.723 149.718 430.969 150.292 430.969 150.963ZM430.141 159.865V179.367C430.141 180.456 429.597 181 428.509 181C427.42 181 426.876 180.456 426.876 179.367V159.865C426.876 158.791 427.42 158.254 428.509 158.254C429.597 158.254 430.141 158.791 430.141 159.865ZM443.671 179.367C443.671 180.456 443.127 181 442.038 181C440.264 181 438.736 180.366 437.453 179.099C436.186 177.817 435.552 176.281 435.552 174.492V150.135C435.552 149.047 436.097 148.503 437.185 148.503C438.259 148.503 438.795 149.047 438.795 150.135V174.492C438.795 175.386 439.116 176.154 439.757 176.795C440.398 177.436 441.159 177.757 442.038 177.757C443.127 177.757 443.671 178.294 443.671 179.367ZM455.046 179.367C455.046 180.456 454.502 181 453.413 181C451.639 181 450.111 180.366 448.828 179.099C447.561 177.817 446.927 176.281 446.927 174.492V150.135C446.927 149.047 447.472 148.503 448.56 148.503C449.634 148.503 450.17 149.047 450.17 150.135V174.492C450.17 175.386 450.491 176.154 451.132 176.795C451.773 177.436 452.534 177.757 453.413 177.757C454.502 177.757 455.046 178.294 455.046 179.367ZM463.469 150.963C463.469 151.634 463.223 152.208 462.731 152.685C462.254 153.147 461.679 153.378 461.009 153.378C460.338 153.378 459.756 153.147 459.264 152.685C458.787 152.208 458.548 151.634 458.548 150.963C458.548 150.292 458.787 149.718 459.264 149.241C459.756 148.749 460.338 148.503 461.009 148.503C461.679 148.503 462.254 148.749 462.731 149.241C463.223 149.718 463.469 150.292 463.469 150.963ZM462.641 159.865V179.367C462.641 180.456 462.097 181 461.009 181C459.92 181 459.376 180.456 459.376 179.367V159.865C459.376 158.791 459.92 158.254 461.009 158.254C462.097 158.254 462.641 158.791 462.641 159.865ZM485.386 179.367C485.386 180.456 484.841 181 483.753 181C482.679 181 482.143 180.456 482.143 179.367V166.373C482.143 165.031 481.658 163.883 480.689 162.929C479.735 161.974 478.594 161.497 477.267 161.497C475.925 161.497 474.777 161.974 473.823 162.929C472.868 163.883 472.391 165.031 472.391 166.373V179.367C472.391 180.456 471.847 181 470.759 181C469.67 181 469.126 180.456 469.126 179.367V159.865C469.126 158.791 469.67 158.254 470.759 158.254C471.847 158.254 472.391 158.791 472.391 159.865C473.823 158.791 475.448 158.254 477.267 158.254C479.489 158.254 481.397 159.052 482.992 160.647C484.588 162.228 485.386 164.136 485.386 166.373V179.367ZM508.143 159.865C508.143 160.685 507.77 161.199 507.024 161.408C506.711 161.482 506.003 161.512 504.9 161.497C505.988 162.944 506.532 164.569 506.532 166.373C506.532 168.952 505.526 171.062 503.513 172.702C506.6 174.611 508.143 177.377 508.143 181C508.143 183.684 507.188 185.98 505.28 187.889C503.386 189.797 501.09 190.751 498.391 190.751C495.707 190.751 493.411 189.797 491.503 187.889C489.594 185.98 488.64 183.684 488.64 181C488.64 179.912 489.184 179.367 490.273 179.367C491.361 179.367 491.905 179.912 491.905 181C491.905 182.789 492.539 184.318 493.806 185.585C495.089 186.867 496.617 187.508 498.391 187.508C500.181 187.508 501.709 186.867 502.976 185.585C504.259 184.318 504.9 182.789 504.9 181C504.9 179.211 504.259 177.682 502.976 176.415C501.709 175.133 500.181 174.492 498.391 174.492C496.17 174.492 494.261 173.701 492.666 172.121C491.07 170.525 490.273 168.609 490.273 166.373C490.273 164.136 491.07 162.228 492.666 160.647C494.261 159.052 496.17 158.254 498.391 158.254H506.532C507.606 158.254 508.143 158.791 508.143 159.865ZM503.267 166.373C503.267 165.031 502.79 163.883 501.836 162.929C500.881 161.974 499.733 161.497 498.391 161.497C497.049 161.497 495.901 161.974 494.947 162.929C493.993 163.883 493.516 165.031 493.516 166.373C493.516 167.715 493.993 168.863 494.947 169.817C495.901 170.771 497.049 171.249 498.391 171.249C499.733 171.249 500.881 170.771 501.836 169.817C502.79 168.863 503.267 167.715 503.267 166.373Z" fill="#3B3838"></path><path d="M159.898 179.68L160.392 178.811L160.387 178.808L159.898 179.68ZM156.32 176.124L155.434 176.588L155.438 176.596L156.32 176.124ZM156.588 174.134L155.929 173.381L155.921 173.388L155.914 173.395L156.588 174.134ZM159.138 174.492L159.977 173.948L159.953 173.91L159.925 173.875L159.138 174.492ZM159.92 175.588L159.12 176.188L159.141 176.216L159.164 176.242L159.92 175.588ZM169.359 175.856L170.066 176.563L170.066 176.563L169.359 175.856ZM169.359 166.664L168.647 167.367L168.656 167.375L169.359 166.664ZM159.026 162.369L158.315 163.073L158.322 163.08L159.026 162.369ZM159.026 150.896L158.319 150.189L159.026 150.896ZM168.844 149.599L168.354 150.47L168.358 150.472L168.844 149.599ZM171.797 152.529L172.682 152.065L172.678 152.056L171.797 152.529ZM168.308 153.378L167.571 154.055L167.575 154.06L168.308 153.378ZM161.329 153.177L160.622 152.47L160.622 152.47L161.329 153.177ZM173.525 171.249C173.525 173.666 172.677 175.708 170.955 177.43L172.369 178.844C174.464 176.749 175.525 174.199 175.525 171.249H173.525ZM170.955 177.43C169.233 179.152 167.191 180 164.774 180V182C167.725 182 170.275 180.939 172.369 178.844L170.955 177.43ZM164.774 180C163.256 180 161.799 179.609 160.391 178.811L159.405 180.55C161.098 181.511 162.892 182 164.774 182V180ZM160.387 178.808C158.942 177.998 157.893 176.945 157.201 175.652L155.438 176.596C156.326 178.256 157.663 179.574 159.409 180.553L160.387 178.808ZM157.205 175.66C157.088 175.437 157.074 175.315 157.074 175.274H155.074C155.074 175.741 155.223 176.185 155.434 176.588L157.205 175.66ZM157.074 175.274C157.074 175.12 157.118 175.004 157.262 174.872L155.914 173.395C155.372 173.89 155.074 174.534 155.074 175.274H157.074ZM157.246 174.886C157.435 174.722 157.607 174.664 157.796 174.664V172.664C157.09 172.664 156.457 172.919 155.929 173.381L157.246 174.886ZM157.796 174.664C157.818 174.664 158.007 174.671 158.351 175.108L159.925 173.875C159.403 173.209 158.698 172.664 157.796 172.664V174.664ZM158.298 175.035C158.481 175.318 158.759 175.706 159.12 176.188L160.72 174.988C160.366 174.515 160.122 174.172 159.977 173.948L158.298 175.035ZM159.164 176.242C160.615 177.917 162.513 178.757 164.774 178.757V176.757C163.069 176.757 161.731 176.151 160.676 174.933L159.164 176.242ZM164.774 178.757C166.829 178.757 168.611 178.018 170.066 176.563L168.652 175.149C167.571 176.229 166.297 176.757 164.774 176.757V178.757ZM170.066 176.563C171.533 175.096 172.282 173.307 172.282 171.249H170.282C170.282 172.769 169.749 174.051 168.652 175.149L170.066 176.563ZM172.282 171.249C172.282 169.19 171.532 167.406 170.062 165.952L168.656 167.375C169.75 168.456 170.282 169.729 170.282 171.249H172.282ZM170.07 165.961C168.616 164.49 166.833 163.74 164.774 163.74V165.74C166.293 165.74 167.566 166.273 168.647 167.367L170.07 165.961ZM164.774 163.74C162.802 163.74 161.139 163.055 159.73 161.659L158.322 163.08C160.104 164.845 162.272 165.74 164.774 165.74V163.74ZM159.736 161.666C158.34 160.257 157.655 158.593 157.655 156.622H155.655C155.655 159.123 156.55 161.291 158.315 163.073L159.736 161.666ZM157.655 156.622C157.655 154.65 158.34 152.996 159.733 151.603L158.319 150.189C156.551 151.957 155.655 154.12 155.655 156.622H157.655ZM159.733 151.603C161.143 150.193 162.805 149.503 164.774 149.503V147.503C162.269 147.503 160.1 148.408 158.319 150.189L159.733 151.603ZM164.774 149.503C166.009 149.503 167.198 149.819 168.354 150.47L169.335 148.727C167.896 147.917 166.371 147.503 164.774 147.503V149.503ZM168.358 150.472C169.517 151.118 170.357 151.961 170.915 153.001L172.678 152.056C171.924 150.651 170.796 149.541 169.331 148.725L168.358 150.472ZM170.911 152.993C171.023 153.206 171.043 153.337 171.043 153.401H173.043C173.043 152.928 172.898 152.477 172.682 152.065L170.911 152.993ZM171.043 153.401C171.043 153.53 171.007 153.641 170.854 153.781L172.202 155.258C172.736 154.771 173.043 154.137 173.043 153.401H171.043ZM170.854 153.781C170.687 153.933 170.53 153.989 170.343 153.989V155.989C171.05 155.989 171.683 155.732 172.202 155.258L170.854 153.781ZM170.343 153.989C170.484 153.989 170.541 154.035 170.474 154C170.421 153.973 170.327 153.914 170.186 153.802C169.905 153.579 169.525 153.219 169.04 152.697L167.575 154.06C168.089 154.612 168.548 155.056 168.945 155.37C169.143 155.527 169.348 155.669 169.554 155.776C169.746 155.876 170.023 155.989 170.343 155.989V153.989ZM169.044 152.702C167.875 151.428 166.437 150.746 164.774 150.746V152.746C165.824 152.746 166.742 153.152 167.571 154.055L169.044 152.702ZM164.774 150.746C163.165 150.746 161.763 151.329 160.622 152.47L162.037 153.884C162.804 153.116 163.699 152.746 164.774 152.746V150.746ZM160.622 152.47C159.482 153.611 158.898 155.013 158.898 156.622H160.898C160.898 155.546 161.269 154.652 162.037 153.884L160.622 152.47ZM158.898 156.622C158.898 158.23 159.482 159.632 160.622 160.773L162.037 159.359C161.269 158.591 160.898 157.697 160.898 156.622H158.898ZM160.622 160.773C161.763 161.914 163.165 162.497 164.774 162.497V160.497C163.699 160.497 162.804 160.127 162.037 159.359L160.622 160.773ZM164.774 162.497C167.191 162.497 169.233 163.345 170.955 165.067L172.369 163.653C170.275 161.558 167.725 160.497 164.774 160.497V162.497ZM170.955 165.067C172.677 166.789 173.525 168.832 173.525 171.249H175.525C175.525 168.298 174.464 165.748 172.369 163.653L170.955 165.067ZM191.631 178.629L192.338 179.336L192.338 179.336L191.631 178.629ZM180.157 178.629L179.447 179.333L179.454 179.34L180.157 178.629ZM182.461 176.326L181.754 177.033L181.754 177.033L182.461 176.326ZM189.35 176.326L188.643 175.618L188.643 175.618L189.35 176.326ZM193.024 172.881C193.024 174.85 192.334 176.512 190.924 177.922L192.338 179.336C194.119 177.555 195.024 175.386 195.024 172.881H193.024ZM190.924 177.922C189.531 179.315 187.877 180 185.905 180V182C188.407 182 190.57 181.105 192.338 179.336L190.924 177.922ZM185.905 180C183.934 180 182.27 179.315 180.861 177.919L179.454 179.34C181.235 181.105 183.404 182 185.905 182V180ZM180.868 177.925C179.472 176.516 178.787 174.853 178.787 172.881H176.787C176.787 175.383 177.682 177.551 179.447 179.333L180.868 177.925ZM178.787 172.881V159.865H176.787V172.881H178.787ZM178.787 159.865C178.787 159.485 178.882 159.384 178.897 159.369C178.915 159.351 179.026 159.254 179.419 159.254V157.254C178.724 157.254 178.019 157.426 177.493 157.945C176.964 158.466 176.787 159.17 176.787 159.865H178.787ZM179.419 159.254C179.802 159.254 179.905 159.349 179.92 159.364C179.935 159.379 180.03 159.482 180.03 159.865H182.03C182.03 159.174 181.856 158.472 181.334 157.95C180.812 157.428 180.11 157.254 179.419 157.254V159.254ZM180.03 159.865V172.881H182.03V159.865H180.03ZM180.03 172.881C180.03 174.49 180.613 175.892 181.754 177.033L183.168 175.618C182.4 174.851 182.03 173.956 182.03 172.881H180.03ZM181.754 177.033C182.895 178.173 184.297 178.757 185.905 178.757V176.757C184.83 176.757 183.936 176.386 183.168 175.618L181.754 177.033ZM185.905 178.757C187.514 178.757 188.916 178.173 190.057 177.033L188.643 175.618C187.875 176.386 186.98 176.757 185.905 176.757V178.757ZM190.057 177.033C191.197 175.892 191.781 174.49 191.781 172.881H189.781C189.781 173.956 189.41 174.851 188.643 175.618L190.057 177.033ZM191.781 172.881V159.865H189.781V172.881H191.781ZM191.781 159.865C191.781 159.485 191.876 159.384 191.891 159.369C191.909 159.351 192.02 159.254 192.414 159.254V157.254C191.719 157.254 191.013 157.426 190.487 157.945C189.958 158.466 189.781 159.17 189.781 159.865H191.781ZM192.414 159.254C192.796 159.254 192.9 159.349 192.914 159.364C192.929 159.379 193.024 159.482 193.024 159.865H195.024C195.024 159.174 194.851 158.472 194.329 157.95C193.807 157.428 193.105 157.254 192.414 157.254V159.254ZM193.024 159.865V172.881H195.024V159.865H193.024ZM201.686 177.668L200.978 178.375L200.978 178.375L201.686 177.668ZM201.596 161.654H200.596V164.091L202.308 162.356L201.596 161.654ZM203.989 163.89L204.696 164.597L204.696 164.597L203.989 163.89ZM203.989 175.364L204.696 174.657L204.696 174.657L203.989 175.364ZM215.463 175.364L216.17 176.071L216.17 176.071L215.463 175.364ZM220.099 169.616C220.099 172.497 219.093 174.927 217.059 176.96L218.473 178.375C220.883 175.965 222.099 173.027 222.099 169.616H220.099ZM217.059 176.96C215.025 178.994 212.596 180 209.715 180V182C213.126 182 216.064 180.784 218.473 178.375L217.059 176.96ZM209.715 180C206.85 180 204.427 178.995 202.393 176.96L200.978 178.375C203.387 180.783 206.317 182 209.715 182V180ZM202.393 176.96C200.359 174.927 199.353 172.497 199.353 169.616H197.353C197.353 173.027 198.569 175.965 200.978 178.375L202.393 176.96ZM199.353 169.616V150.135H197.353V169.616H199.353ZM199.353 150.135C199.353 149.745 199.45 149.637 199.468 149.618C199.487 149.6 199.596 149.503 199.986 149.503V147.503C199.287 147.503 198.58 147.678 198.054 148.204C197.528 148.73 197.353 149.437 197.353 150.135H199.353ZM199.986 149.503C200.365 149.503 200.466 149.598 200.482 149.613C200.499 149.631 200.596 149.742 200.596 150.135H202.596C202.596 149.441 202.424 148.735 201.905 148.209C201.384 147.68 200.68 147.503 199.986 147.503V149.503ZM200.596 150.135V161.654H202.596V150.135H200.596ZM202.308 162.356C204.357 160.28 206.807 159.254 209.715 159.254V157.254C206.271 157.254 203.308 158.495 200.884 160.951L202.308 162.356ZM209.715 159.254C212.596 159.254 215.025 160.26 217.059 162.294L218.473 160.88C216.064 158.47 213.126 157.254 209.715 157.254V159.254ZM217.059 162.294C219.094 164.329 220.099 166.751 220.099 169.616H222.099C222.099 166.218 220.882 163.288 218.473 160.88L217.059 162.294ZM218.856 169.616C218.856 167.124 217.95 164.963 216.17 163.183L214.756 164.597C216.167 166.009 216.856 167.664 216.856 169.616H218.856ZM216.17 163.183C214.389 161.402 212.219 160.497 209.715 160.497V162.497C211.684 162.497 213.346 163.188 214.756 164.597L216.17 163.183ZM209.715 160.497C207.223 160.497 205.062 161.404 203.282 163.183L204.696 164.597C206.107 163.186 207.763 162.497 209.715 162.497V160.497ZM203.282 163.183C201.502 164.963 200.596 167.124 200.596 169.616H202.596C202.596 167.664 203.285 166.009 204.696 164.597L203.282 163.183ZM200.596 169.616C200.596 172.12 201.501 174.29 203.282 176.071L204.696 174.657C203.287 173.247 202.596 171.585 202.596 169.616H200.596ZM203.282 176.071C205.062 177.851 207.223 178.757 209.715 178.757V176.757C207.763 176.757 206.107 176.068 204.696 174.657L203.282 176.071ZM209.715 178.757C212.219 178.757 214.389 177.852 216.17 176.071L214.756 174.657C213.346 176.066 211.684 176.757 209.715 176.757V178.757ZM216.17 176.071C217.951 174.29 218.856 172.12 218.856 169.616H216.856C216.856 171.585 216.165 173.247 214.756 174.657L216.17 176.071ZM235.379 178.853L234.676 178.142L234.672 178.146L235.379 178.853ZM226.053 179.703L225.483 180.524L225.494 180.532L226.053 179.703ZM223.391 176.303L224.331 175.96L224.328 175.952L223.391 176.303ZM223.772 174.536L224.428 175.291L224.437 175.283L224.446 175.275L223.772 174.536ZM226.366 175.028L227.2 174.476L227.195 174.469L226.366 175.028ZM227.618 176.795L226.911 177.502L226.919 177.51L227.618 176.795ZM233.098 176.572L233.805 177.279L233.812 177.272L233.098 176.572ZM230.123 169.616L230.209 168.62L230.203 168.619L230.123 169.616ZM226.075 167.961L226.761 167.233L226.757 167.229L226.075 167.961ZM226.098 159.932L226.8 160.643L226.805 160.639L226.098 159.932ZM235.021 161.072L235.907 160.608L235.904 160.603L235.021 161.072ZM234.753 163.063L234.079 162.324L234.079 162.324L234.753 163.063ZM232.069 162.526L231.29 163.153L231.297 163.161L232.069 162.526ZM228.401 162.235L229.108 162.942L229.114 162.937L229.119 162.931L228.401 162.235ZM230.235 166.373L230.331 165.378L230.331 165.378L230.235 166.373ZM235.446 168.52L236.13 167.79L236.128 167.788L235.446 168.52ZM236.549 173.686C236.549 175.429 235.935 176.896 234.676 178.142L236.083 179.564C237.716 177.947 238.549 175.97 238.549 173.686H236.549ZM234.672 178.146C233.426 179.392 231.964 180 230.235 180V182C232.502 182 234.47 181.176 236.086 179.56L234.672 178.146ZM230.235 180C228.934 180 227.734 179.63 226.612 178.874L225.494 180.532C226.936 181.505 228.524 182 230.235 182V180ZM226.623 178.881C225.517 178.114 224.763 177.144 224.331 175.96L222.452 176.647C223.033 178.236 224.054 179.533 225.483 180.524L226.623 178.881ZM224.328 175.952C224.268 175.792 224.257 175.697 224.257 175.655H222.257C222.257 175.999 222.336 176.337 222.455 176.654L224.328 175.952ZM224.257 175.655C224.257 175.502 224.299 175.403 224.428 175.291L223.115 173.782C222.558 174.266 222.257 174.913 222.257 175.655H224.257ZM224.446 175.275C224.612 175.123 224.769 175.067 224.957 175.067V173.067C224.25 173.067 223.617 173.324 223.097 173.798L224.446 175.275ZM224.957 175.067C224.983 175.067 225.188 175.07 225.537 175.588L227.195 174.469C226.679 173.704 225.945 173.067 224.957 173.067V175.067ZM225.532 175.58C225.87 176.091 226.149 176.502 226.366 176.809C226.566 177.09 226.759 177.35 226.911 177.502L228.326 176.088C228.332 176.095 228.307 176.069 228.239 175.981C228.178 175.902 228.098 175.793 227.998 175.652C227.798 175.37 227.533 174.98 227.2 174.477L225.532 175.58ZM226.919 177.51C227.797 178.368 228.938 178.757 230.235 178.757V176.757C229.356 176.757 228.752 176.505 228.317 176.08L226.919 177.51ZM230.235 178.757C231.619 178.757 232.827 178.257 233.805 177.279L232.391 175.865C231.788 176.467 231.088 176.757 230.235 176.757V178.757ZM233.812 177.272C234.784 176.282 235.283 175.069 235.283 173.686H233.283C233.283 174.54 232.993 175.251 232.384 175.871L233.812 177.272ZM235.283 173.686C235.283 172.258 234.878 171.013 233.943 170.098C233.025 169.199 231.729 168.75 230.209 168.62L230.038 170.612C231.292 170.72 232.075 171.069 232.544 171.527C232.996 171.969 233.283 172.64 233.283 173.686H235.283ZM230.203 168.619C228.716 168.5 227.595 168.019 226.761 167.233L225.39 168.689C226.613 169.841 228.19 170.464 230.043 170.613L230.203 168.619ZM226.757 167.229C225.878 166.409 225.42 165.343 225.42 163.935H223.42C223.42 165.838 224.066 167.455 225.393 168.692L226.757 167.229ZM225.42 163.935C225.42 162.638 225.871 161.56 226.8 160.643L225.395 159.22C224.087 160.51 223.42 162.101 223.42 163.935H225.42ZM226.805 160.639C227.738 159.706 228.826 159.254 230.123 159.254V157.254C228.29 157.254 226.694 157.921 225.39 159.225L226.805 160.639ZM230.123 159.254C231.117 159.254 231.912 159.459 232.549 159.825C233.182 160.19 233.715 160.746 234.139 161.542L235.904 160.603C235.328 159.52 234.546 158.667 233.546 158.092C232.55 157.519 231.396 157.254 230.123 157.254V159.254ZM234.136 161.536C234.253 161.76 234.267 161.881 234.267 161.922H236.267C236.267 161.456 236.118 161.011 235.907 160.608L234.136 161.536ZM234.267 161.922C234.267 162.077 234.223 162.192 234.079 162.324L235.427 163.801C235.969 163.307 236.267 162.662 236.267 161.922H234.267ZM234.079 162.324C233.912 162.476 233.755 162.532 233.568 162.532V164.532C234.275 164.532 234.908 164.276 235.427 163.801L234.079 162.324ZM233.568 162.532C233.6 162.532 233.556 162.545 233.415 162.451C233.273 162.355 233.081 162.182 232.842 161.891L231.297 163.161C231.876 163.866 232.636 164.532 233.568 164.532V162.532ZM232.848 161.899C232.145 161.025 231.228 160.497 230.123 160.497V162.497C230.51 162.497 230.89 162.655 231.29 163.153L232.848 161.899ZM230.123 160.497C229.175 160.497 228.344 160.858 227.683 161.539L229.119 162.931C229.412 162.629 229.729 162.497 230.123 162.497V160.497ZM227.694 161.528C227.035 162.187 226.686 163.005 226.686 163.935H228.686C228.686 163.553 228.813 163.238 229.108 162.942L227.694 161.528ZM226.686 163.935C226.686 164.868 226.964 165.724 227.632 166.363C228.278 166.981 229.164 167.274 230.139 167.368L230.331 165.378C229.607 165.308 229.218 165.112 229.014 164.918C228.832 164.744 228.686 164.463 228.686 163.935H226.686ZM230.139 167.368C232.13 167.56 233.645 168.208 234.765 169.252L236.128 167.788C234.623 166.386 232.665 165.603 230.331 165.378L230.139 167.368ZM234.763 169.25C235.939 170.351 236.549 171.797 236.549 173.686H238.549C238.549 171.311 237.757 169.313 236.13 167.79L234.763 169.25ZM259.124 163.89L259.831 164.597L259.831 164.597L259.124 163.89ZM255.545 162.951L254.992 163.784L255.002 163.791L255.545 162.951ZM245.346 163.89L244.639 163.183L244.636 163.187L245.346 163.89ZM245.346 175.364L244.636 176.068L244.639 176.071L245.346 175.364ZM255.523 176.326L256.07 177.163L256.072 177.162L255.523 176.326ZM259.101 175.386L258.379 176.077L258.386 176.085L258.394 176.093L259.101 175.386ZM259.124 177.69L259.884 178.339L259.892 178.33L259.899 178.322L259.124 177.69ZM255.456 180.128L255.095 179.195L255.089 179.197L255.456 180.128ZM243.043 177.668L242.336 178.375L242.338 178.377L243.043 177.668ZM243.043 161.587L242.338 160.877L242.336 160.88L243.043 161.587ZM255.456 159.126L255.824 158.197L255.822 158.196L255.456 159.126ZM259.124 161.587L258.363 162.236L258.369 162.242L258.375 162.249L259.124 161.587ZM258.638 162.705C258.638 162.863 258.589 163.01 258.416 163.183L259.831 164.597C260.344 164.084 260.638 163.441 260.638 162.705H258.638ZM258.416 163.183C258.268 163.331 258.132 163.382 257.961 163.382V165.382C258.684 165.382 259.323 165.105 259.831 164.597L258.416 163.183ZM257.961 163.382C258.082 163.382 258.169 163.406 258.191 163.412C258.224 163.421 258.244 163.429 258.246 163.43C258.25 163.431 258.233 163.425 258.187 163.401C258.098 163.356 257.96 163.28 257.766 163.164C257.38 162.936 256.823 162.586 256.088 162.111L255.002 163.791C255.744 164.27 256.327 164.636 256.746 164.885C256.954 165.008 257.135 165.11 257.281 165.184C257.353 165.221 257.432 165.259 257.511 165.29C257.546 165.304 257.733 165.382 257.961 165.382V163.382ZM256.098 162.118C254.5 161.058 252.828 160.497 251.094 160.497V162.497C252.373 162.497 253.667 162.906 254.992 163.784L256.098 162.118ZM251.094 160.497C248.59 160.497 246.42 161.402 244.639 163.183L246.054 164.597C247.463 163.188 249.126 162.497 251.094 162.497V160.497ZM244.636 163.187C242.872 164.967 241.976 167.127 241.976 169.616H243.976C243.976 167.661 244.66 166.005 246.057 164.594L244.636 163.187ZM241.976 169.616C241.976 172.117 242.871 174.286 244.636 176.068L246.057 174.66C244.661 173.251 243.976 171.588 243.976 169.616H241.976ZM244.639 176.071C246.42 177.852 248.59 178.757 251.094 178.757V176.757C249.126 176.757 247.463 176.066 246.054 174.657L244.639 176.071ZM251.094 178.757C252.811 178.757 254.474 178.205 256.07 177.163L254.976 175.488C253.649 176.355 252.36 176.757 251.094 176.757V178.757ZM256.072 177.162C256.806 176.679 257.364 176.325 257.751 176.094C257.947 175.978 258.085 175.901 258.174 175.856C258.22 175.833 258.237 175.826 258.233 175.828C258.23 175.829 258.21 175.837 258.177 175.845C258.153 175.851 258.072 175.872 257.961 175.872V173.872C257.741 173.872 257.56 173.944 257.515 173.961C257.432 173.993 257.349 174.032 257.274 174.07C257.123 174.146 256.938 174.251 256.727 174.376C256.302 174.63 255.716 175.003 254.974 175.49L256.072 177.162ZM257.961 175.872C258.092 175.872 258.219 175.91 258.379 176.077L259.824 174.695C259.328 174.176 258.694 173.872 257.961 173.872V175.872ZM258.394 176.093C258.574 176.274 258.616 176.415 258.616 176.549H260.616C260.616 175.818 260.314 175.185 259.808 174.679L258.394 176.093ZM258.616 176.549C258.616 176.593 258.595 176.756 258.348 177.058L259.899 178.322C260.308 177.819 260.616 177.221 260.616 176.549H258.616ZM258.363 177.041C257.631 177.899 256.562 178.628 255.095 179.195L255.816 181.06C257.511 180.405 258.887 179.509 259.884 178.339L258.363 177.041ZM255.089 179.197C253.717 179.738 252.387 180 251.094 180V182C252.664 182 254.242 181.681 255.822 181.058L255.089 179.197ZM251.094 180C248.229 180 245.798 178.995 243.747 176.958L242.338 178.377C244.76 180.783 247.697 182 251.094 182V180ZM243.75 176.96C241.716 174.927 240.71 172.497 240.71 169.616H238.71C238.71 173.027 239.926 175.965 242.336 178.375L243.75 176.96ZM240.71 169.616C240.71 166.751 241.715 164.329 243.75 162.294L242.336 160.88C239.927 163.288 238.71 166.218 238.71 169.616H240.71ZM243.747 162.296C245.798 160.259 248.229 159.254 251.094 159.254V157.254C247.697 157.254 244.76 158.471 242.338 160.877L243.747 162.296ZM251.094 159.254C252.387 159.254 253.717 159.516 255.089 160.057L255.822 158.196C254.242 157.574 252.664 157.254 251.094 157.254V159.254ZM255.087 160.056C256.557 160.638 257.629 161.375 258.363 162.236L259.884 160.938C258.888 159.77 257.516 158.867 255.824 158.197L255.087 160.056ZM258.375 162.249C258.627 162.534 258.638 162.681 258.638 162.705H260.638C260.638 162.014 260.306 161.414 259.873 160.924L258.375 162.249ZM275.823 163.488L275.165 162.735L275.157 162.742L275.149 162.749L275.823 163.488ZM268.174 162.459L267.467 161.752L267.459 161.76L268.174 162.459ZM267.101 159.194L266.182 159.587L266.636 160.647L267.621 160.048L267.101 159.194ZM273.743 159.149L273.252 160.02L273.258 160.023L273.743 159.149ZM276.114 161.497L277.009 161.05L277.004 161.042L277 161.034L276.114 161.497ZM275.36 162.369C275.36 162.483 275.33 162.591 275.165 162.735L276.482 164.24C277.032 163.759 277.36 163.121 277.36 162.369H275.36ZM275.149 162.749C274.976 162.908 274.824 162.957 274.66 162.957V164.957C275.362 164.957 275.985 164.694 276.498 164.226L275.149 162.749ZM274.66 162.957C274.749 162.957 274.707 162.991 274.497 162.84C274.303 162.699 274.044 162.456 273.721 162.078L272.2 163.377C272.578 163.818 272.953 164.191 273.325 164.46C273.682 164.718 274.139 164.957 274.66 164.957V162.957ZM273.721 162.078C272.858 161.068 271.765 160.497 270.478 160.497V162.497C271.1 162.497 271.662 162.747 272.2 163.377L273.721 162.078ZM270.478 160.497C269.314 160.497 268.293 160.926 267.467 161.752L268.881 163.166C269.338 162.71 269.853 162.497 270.478 162.497V160.497ZM267.459 161.76C266.654 162.584 266.235 163.594 266.235 164.74H268.235C268.235 164.127 268.442 163.616 268.89 163.158L267.459 161.76ZM266.235 164.74V179.367H268.235V164.74H266.235ZM266.235 179.367C266.235 179.757 266.138 179.866 266.12 179.885C266.101 179.903 265.992 180 265.602 180V182C266.301 182 267.008 181.825 267.534 181.299C268.06 180.773 268.235 180.066 268.235 179.367H266.235ZM265.602 180C265.212 180 265.103 179.903 265.085 179.885C265.066 179.866 264.97 179.757 264.97 179.367H262.97C262.97 180.066 263.145 180.773 263.671 181.299C264.196 181.825 264.904 182 265.602 182V180ZM264.97 179.367V159.865H262.97V179.367H264.97ZM264.97 159.865C264.97 159.485 265.065 159.384 265.08 159.369C265.098 159.351 265.209 159.254 265.602 159.254V157.254C264.907 157.254 264.202 157.426 263.676 157.945C263.147 158.466 262.97 159.17 262.97 159.865H264.97ZM265.602 159.254C265.825 159.254 265.937 159.301 265.994 159.336C266.045 159.369 266.115 159.431 266.182 159.587L268.02 158.8C267.818 158.329 267.504 157.923 267.056 157.642C266.613 157.364 266.111 157.254 265.602 157.254V159.254ZM267.621 160.048C268.49 159.518 269.436 159.254 270.478 159.254V157.254C269.075 157.254 267.769 157.616 266.581 158.339L267.621 160.048ZM270.478 159.254C271.41 159.254 272.33 159.501 273.252 160.02L274.234 158.278C273.039 157.604 271.783 157.254 270.478 157.254V159.254ZM273.258 160.023C274.182 160.537 274.822 161.185 275.228 161.961L277 161.034C276.392 159.871 275.452 158.954 274.229 158.275L273.258 160.023ZM275.22 161.944C275.343 162.191 275.36 162.325 275.36 162.369H277.36C277.36 161.907 277.213 161.459 277.009 161.05L275.22 161.944ZM284.031 152.685L284.727 153.403L284.728 153.403L284.031 152.685ZM280.565 152.685L279.858 153.392L279.869 153.403L279.88 153.414L280.565 152.685ZM280.565 149.241L279.858 148.534L279.858 148.534L280.565 149.241ZM284.031 149.241L283.314 149.937L283.324 149.948L283.335 149.959L284.031 149.241ZM283.77 150.963C283.77 151.357 283.638 151.674 283.335 151.967L284.728 153.403C285.409 152.742 285.77 151.911 285.77 150.963H283.77ZM283.336 151.967C283.047 152.246 282.723 152.378 282.309 152.378V154.378C283.237 154.378 284.061 154.048 284.727 153.403L283.336 151.967ZM282.309 152.378C281.894 152.378 281.557 152.246 281.249 151.956L279.88 153.414C280.556 154.049 281.382 154.378 282.309 154.378V152.378ZM281.272 151.978C280.981 151.687 280.849 151.367 280.849 150.963H278.849C278.849 151.901 279.194 152.729 279.858 153.392L281.272 151.978ZM280.849 150.963C280.849 150.559 280.981 150.239 281.272 149.948L279.858 148.534C279.194 149.197 278.849 150.025 278.849 150.963H280.849ZM281.272 149.948C281.584 149.636 281.914 149.503 282.309 149.503V147.503C281.362 147.503 280.529 147.862 279.858 148.534L281.272 149.948ZM282.309 149.503C282.703 149.503 283.02 149.634 283.314 149.937L284.749 148.545C284.088 147.863 283.257 147.503 282.309 147.503V149.503ZM283.335 149.959C283.638 150.252 283.77 150.569 283.77 150.963H285.77C285.77 150.015 285.409 149.184 284.728 148.523L283.335 149.959ZM282.942 159.865V179.367H284.942V159.865H282.942ZM282.942 179.367C282.942 179.757 282.845 179.866 282.827 179.885C282.808 179.903 282.699 180 282.309 180V182C283.008 182 283.715 181.825 284.241 181.299C284.767 180.773 284.942 180.066 284.942 179.367H282.942ZM282.309 180C281.919 180 281.81 179.903 281.792 179.885C281.773 179.866 281.677 179.757 281.677 179.367H279.677C279.677 180.066 279.852 180.773 280.378 181.299C280.903 181.825 281.611 182 282.309 182V180ZM281.677 179.367V159.865H279.677V179.367H281.677ZM281.677 159.865C281.677 159.485 281.772 159.384 281.787 159.369C281.805 159.351 281.916 159.254 282.309 159.254V157.254C281.614 157.254 280.909 157.426 280.383 157.945C279.854 158.466 279.677 159.17 279.677 159.865H281.677ZM282.309 159.254C282.703 159.254 282.814 159.351 282.832 159.369C282.847 159.384 282.942 159.485 282.942 159.865H284.942C284.942 159.17 284.765 158.466 284.236 157.945C283.71 157.426 283.004 157.254 282.309 157.254V159.254ZM309.84 177.668L309.135 176.958L309.133 176.96L309.84 177.668ZM293.692 177.578L294.408 176.88L292.692 175.118V177.578H293.692ZM293.603 159.462L292.63 159.696L292.632 159.704L293.603 159.462ZM293.692 161.654L292.692 161.641L292.66 164.135L294.406 162.354L293.692 161.654ZM309.84 161.587L309.133 162.294L309.135 162.296L309.84 161.587ZM307.536 163.89L306.826 164.594L306.829 164.597L307.536 163.89ZM296.063 163.89L295.356 163.183L295.352 163.187L296.063 163.89ZM296.063 175.364L295.352 176.068L295.356 176.071L296.063 175.364ZM307.536 175.364L306.829 174.657L306.826 174.66L307.536 175.364ZM312.195 169.616C312.195 172.495 311.183 174.924 309.135 176.958L310.545 178.377C312.97 175.968 314.195 173.029 314.195 169.616H312.195ZM309.133 176.96C307.098 178.995 304.676 180 301.811 180V182C305.208 182 308.139 180.783 310.547 178.375L309.133 176.96ZM301.811 180C298.889 180 296.441 178.968 294.408 176.88L292.976 178.276C295.386 180.751 298.351 182 301.811 182V180ZM292.692 177.578V189.119H294.692V177.578H292.692ZM292.692 189.119C292.692 189.509 292.595 189.618 292.577 189.636C292.558 189.655 292.449 189.751 292.059 189.751V191.751C292.758 191.751 293.465 191.576 293.991 191.05C294.517 190.525 294.692 189.817 294.692 189.119H292.692ZM292.059 189.751C291.669 189.751 291.56 189.655 291.542 189.636C291.523 189.618 291.427 189.509 291.427 189.119H289.427C289.427 189.817 289.602 190.525 290.128 191.05C290.653 191.576 291.361 191.751 292.059 191.751V189.751ZM291.427 189.119V159.865H289.427V189.119H291.427ZM291.427 159.865C291.427 159.485 291.522 159.384 291.537 159.369C291.555 159.351 291.666 159.254 292.059 159.254V157.254C291.364 157.254 290.659 157.426 290.133 157.945C289.604 158.466 289.427 159.17 289.427 159.865H291.427ZM292.059 159.254C292.316 159.254 292.418 159.314 292.455 159.344C292.492 159.372 292.572 159.453 292.63 159.696L294.575 159.228C294.439 158.666 294.166 158.143 293.688 157.769C293.211 157.395 292.637 157.254 292.059 157.254V159.254ZM292.632 159.704C292.632 159.704 292.633 159.707 292.635 159.715C292.636 159.723 292.638 159.734 292.64 159.748C292.645 159.777 292.65 159.817 292.655 159.868C292.666 159.97 292.675 160.104 292.682 160.274C292.696 160.615 292.699 161.068 292.692 161.641L294.692 161.667C294.699 161.076 294.696 160.583 294.68 160.193C294.665 159.827 294.637 159.478 294.573 159.219L292.632 159.704ZM294.406 162.354C296.439 160.28 298.887 159.254 301.811 159.254V157.254C298.353 157.254 295.389 158.494 292.978 160.954L294.406 162.354ZM301.811 159.254C304.676 159.254 307.098 160.259 309.133 162.294L310.547 160.88C308.139 158.471 305.208 157.254 301.811 157.254V159.254ZM309.135 162.296C311.184 164.331 312.195 166.753 312.195 169.616H314.195C314.195 166.216 312.969 163.285 310.545 160.877L309.135 162.296ZM310.929 169.616C310.929 167.124 310.023 164.963 308.243 163.183L306.829 164.597C308.24 166.009 308.929 167.664 308.929 169.616H310.929ZM308.247 163.187C306.479 161.402 304.315 160.497 301.811 160.497V162.497C303.779 162.497 305.432 163.187 306.826 164.594L308.247 163.187ZM301.811 160.497C299.306 160.497 297.137 161.402 295.356 163.183L296.77 164.597C298.18 163.188 299.842 162.497 301.811 162.497V160.497ZM295.352 163.187C293.589 164.967 292.692 167.127 292.692 169.616H294.692C294.692 167.661 295.376 166.005 296.773 164.594L295.352 163.187ZM292.692 169.616C292.692 172.117 293.587 174.286 295.352 176.068L296.773 174.66C295.377 173.251 294.692 171.588 294.692 169.616H292.692ZM295.356 176.071C297.137 177.852 299.306 178.757 301.811 178.757V176.757C299.842 176.757 298.18 176.066 296.77 174.657L295.356 176.071ZM301.811 178.757C304.315 178.757 306.479 177.852 308.247 176.068L306.826 174.66C305.432 176.067 303.779 176.757 301.811 176.757V178.757ZM308.243 176.071C310.024 174.29 310.929 172.12 310.929 169.616H308.929C308.929 171.585 308.239 173.247 306.829 174.657L308.243 176.071ZM329.884 180.329L330.331 181.223L330.331 181.223L329.884 180.329ZM322.1 179.099L321.389 179.802L321.397 179.81L322.1 179.099ZM320.199 161.497H321.199V160.497H320.199V161.497ZM320.199 158.254V159.254H321.199V158.254H320.199ZM323.465 158.254H322.465V159.254H323.465V158.254ZM323.465 161.497V160.497H322.465V161.497H323.465ZM324.404 176.795L323.689 177.494L323.697 177.502L324.404 176.795ZM330.583 177.824C330.583 178.195 330.491 178.48 330.331 178.716C330.165 178.96 329.888 179.209 329.436 179.435L330.331 181.223C331.012 180.883 331.585 180.43 331.986 179.839C332.392 179.241 332.583 178.556 332.583 177.824H330.583ZM329.436 179.435C328.708 179.799 327.809 180 326.708 180V182C328.052 182 329.27 181.754 330.331 181.223L329.436 179.435ZM326.708 180C325.184 180 323.9 179.472 322.803 178.388L321.397 179.81C322.865 181.261 324.653 182 326.708 182V180ZM322.812 178.396C321.728 177.299 321.199 176.015 321.199 174.492H319.199C319.199 176.546 319.938 178.334 321.389 179.802L322.812 178.396ZM321.199 174.492V161.497H319.199V174.492H321.199ZM320.199 160.497H316.956V162.497H320.199V160.497ZM316.956 160.497C316.566 160.497 316.457 160.4 316.439 160.382C316.42 160.363 316.324 160.255 316.324 159.865H314.324C314.324 160.563 314.499 161.27 315.025 161.796C315.55 162.322 316.258 162.497 316.956 162.497V160.497ZM316.324 159.865C316.324 159.485 316.418 159.384 316.434 159.369C316.452 159.351 316.563 159.254 316.956 159.254V157.254C316.261 157.254 315.556 157.426 315.03 157.945C314.501 158.466 314.324 159.17 314.324 159.865H316.324ZM316.956 159.254H320.199V157.254H316.956V159.254ZM321.199 158.254V150.135H319.199V158.254H321.199ZM321.199 150.135C321.199 149.745 321.296 149.637 321.315 149.618C321.333 149.6 321.442 149.503 321.832 149.503V147.503C321.134 147.503 320.426 147.678 319.9 148.204C319.375 148.73 319.199 149.437 319.199 150.135H321.199ZM321.832 149.503C322.222 149.503 322.331 149.6 322.349 149.618C322.368 149.637 322.465 149.745 322.465 150.135H324.465C324.465 149.437 324.289 148.73 323.764 148.204C323.238 147.678 322.53 147.503 321.832 147.503V149.503ZM322.465 150.135V158.254H324.465V150.135H322.465ZM323.465 159.254H326.708V157.254H323.465V159.254ZM326.708 159.254C327.101 159.254 327.212 159.351 327.23 159.369C327.245 159.384 327.34 159.485 327.34 159.865H329.34C329.34 159.17 329.163 158.466 328.634 157.945C328.108 157.426 327.403 157.254 326.708 157.254V159.254ZM327.34 159.865C327.34 160.255 327.243 160.363 327.225 160.382C327.207 160.4 327.098 160.497 326.708 160.497V162.497C327.406 162.497 328.113 162.322 328.639 161.796C329.165 161.27 329.34 160.563 329.34 159.865H327.34ZM326.708 160.497H323.465V162.497H326.708V160.497ZM322.465 161.497V174.492H324.465V161.497H322.465ZM322.465 174.492C322.465 175.648 322.88 176.666 323.689 177.494L325.119 176.097C324.675 175.642 324.465 175.125 324.465 174.492H322.465ZM323.697 177.502C324.523 178.328 325.544 178.757 326.708 178.757V176.757C326.082 176.757 325.568 176.545 325.111 176.088L323.697 177.502ZM326.708 178.757C327.704 178.757 328.619 178.385 329.435 177.733L328.185 176.171C327.659 176.592 327.173 176.757 326.708 176.757V178.757ZM329.435 177.733C329.746 177.484 329.986 177.321 330.161 177.226C330.36 177.118 330.382 177.147 330.286 177.147V175.147C329.877 175.147 329.497 175.31 329.203 175.47C328.887 175.643 328.545 175.883 328.185 176.171L329.435 177.733ZM330.286 177.147C330.396 177.147 330.445 177.164 330.458 177.17C330.464 177.173 330.463 177.172 330.468 177.178C330.49 177.206 330.583 177.366 330.583 177.824H332.583C332.583 177.164 332.46 176.485 332.05 175.954C331.602 175.375 330.951 175.147 330.286 175.147V177.147ZM339.231 152.685L339.926 153.403L339.927 153.403L339.231 152.685ZM335.764 152.685L335.057 153.392L335.068 153.403L335.079 153.414L335.764 152.685ZM335.764 149.241L335.057 148.534L335.057 148.534L335.764 149.241ZM339.231 149.241L338.513 149.937L338.523 149.948L338.535 149.959L339.231 149.241ZM338.969 150.963C338.969 151.357 338.837 151.674 338.535 151.967L339.927 153.403C340.608 152.742 340.969 151.911 340.969 150.963H338.969ZM338.535 151.967C338.246 152.246 337.923 152.378 337.509 152.378V154.378C338.436 154.378 339.261 154.048 339.926 153.403L338.535 151.967ZM337.509 152.378C337.094 152.378 336.757 152.246 336.449 151.956L335.079 153.414C335.756 154.049 336.581 154.378 337.509 154.378V152.378ZM336.471 151.978C336.18 151.687 336.048 151.367 336.048 150.963H334.048C334.048 151.901 334.393 152.729 335.057 153.392L336.471 151.978ZM336.048 150.963C336.048 150.559 336.18 150.239 336.471 149.948L335.057 148.534C334.393 149.197 334.048 150.025 334.048 150.963H336.048ZM336.471 149.948C336.783 149.636 337.114 149.503 337.509 149.503V147.503C336.562 147.503 335.729 147.862 335.057 148.534L336.471 149.948ZM337.509 149.503C337.902 149.503 338.219 149.634 338.513 149.937L339.949 148.545C339.288 147.863 338.457 147.503 337.509 147.503V149.503ZM338.535 149.959C338.837 150.252 338.969 150.569 338.969 150.963H340.969C340.969 150.015 340.608 149.184 339.927 148.523L338.535 149.959ZM338.141 159.865V179.367H340.141V159.865H338.141ZM338.141 179.367C338.141 179.757 338.044 179.866 338.026 179.885C338.007 179.903 337.899 180 337.509 180V182C338.207 182 338.914 181.825 339.44 181.299C339.966 180.773 340.141 180.066 340.141 179.367H338.141ZM337.509 180C337.118 180 337.01 179.903 336.991 179.885C336.973 179.866 336.876 179.757 336.876 179.367H334.876C334.876 180.066 335.051 180.773 335.577 181.299C336.103 181.825 336.81 182 337.509 182V180ZM336.876 179.367V159.865H334.876V179.367H336.876ZM336.876 159.865C336.876 159.485 336.971 159.384 336.986 159.369C337.004 159.351 337.115 159.254 337.509 159.254V157.254C336.814 157.254 336.108 157.426 335.582 157.945C335.053 158.466 334.876 159.17 334.876 159.865H336.876ZM337.509 159.254C337.902 159.254 338.013 159.351 338.031 159.369C338.046 159.384 338.141 159.485 338.141 159.865H340.141C340.141 159.17 339.964 158.466 339.435 157.945C338.909 157.426 338.203 157.254 337.509 157.254V159.254ZM362.87 177.668L362.165 176.958L362.163 176.96L362.87 177.668ZM346.789 177.668L346.082 178.375L346.084 178.377L346.789 177.668ZM346.789 161.587L346.084 160.877L346.082 160.88L346.789 161.587ZM362.87 161.587L362.163 162.294L362.165 162.296L362.87 161.587ZM360.566 163.89L359.856 164.594L359.859 164.597L360.566 163.89ZM349.092 163.89L348.385 163.183L348.382 163.187L349.092 163.89ZM349.092 175.364L348.382 176.068L348.385 176.071L349.092 175.364ZM360.566 175.364L359.859 174.657L359.856 174.66L360.566 175.364ZM365.225 169.616C365.225 172.495 364.213 174.924 362.165 176.958L363.574 178.377C366 175.968 367.225 173.029 367.225 169.616H365.225ZM362.163 176.96C360.128 178.995 357.705 180 354.84 180V182C358.238 182 361.168 180.783 363.577 178.375L362.163 176.96ZM354.84 180C351.975 180 349.544 178.995 347.494 176.958L346.084 178.377C348.507 180.783 351.443 182 354.84 182V180ZM347.496 176.96C345.462 174.927 344.456 172.497 344.456 169.616H342.456C342.456 173.027 343.672 175.965 346.082 178.375L347.496 176.96ZM344.456 169.616C344.456 166.751 345.461 164.329 347.496 162.294L346.082 160.88C343.673 163.288 342.456 166.218 342.456 169.616H344.456ZM347.494 162.296C349.544 160.259 351.975 159.254 354.84 159.254V157.254C351.443 157.254 348.507 158.471 346.084 160.877L347.494 162.296ZM354.84 159.254C357.705 159.254 360.128 160.259 362.163 162.294L363.577 160.88C361.168 158.471 358.238 157.254 354.84 157.254V159.254ZM362.165 162.296C364.214 164.331 365.225 166.753 365.225 169.616H367.225C367.225 166.216 365.999 163.285 363.574 160.877L362.165 162.296ZM363.959 169.616C363.959 167.124 363.053 164.963 361.273 163.183L359.859 164.597C361.27 166.009 361.959 167.664 361.959 169.616H363.959ZM361.276 163.187C359.509 161.402 357.345 160.497 354.84 160.497V162.497C356.809 162.497 358.462 163.187 359.856 164.594L361.276 163.187ZM354.84 160.497C352.336 160.497 350.166 161.402 348.385 163.183L349.8 164.597C351.209 163.188 352.872 162.497 354.84 162.497V160.497ZM348.382 163.187C346.618 164.967 345.722 167.127 345.722 169.616H347.722C347.722 167.661 348.406 166.005 349.803 164.594L348.382 163.187ZM345.722 169.616C345.722 172.117 346.617 174.286 348.382 176.068L349.803 174.66C348.407 173.251 347.722 171.588 347.722 169.616H345.722ZM348.385 176.071C350.166 177.852 352.336 178.757 354.84 178.757V176.757C352.872 176.757 351.209 176.066 349.8 174.657L348.385 176.071ZM354.84 178.757C357.345 178.757 359.509 177.852 361.276 176.068L359.856 174.66C358.462 176.067 356.809 176.757 354.84 176.757V178.757ZM361.273 176.071C363.054 174.29 363.959 172.12 363.959 169.616H361.959C361.959 171.585 361.269 173.247 359.859 174.657L361.273 176.071ZM382.122 162.929L381.415 163.636L381.421 163.641L382.122 162.929ZM375.256 162.929L375.963 163.636L375.963 163.636L375.256 162.929ZM373.825 159.865H372.825V161.865L374.425 160.665L373.825 159.865ZM384.426 160.647L383.719 161.354L383.722 161.358L384.426 160.647ZM385.819 179.367C385.819 179.757 385.722 179.866 385.704 179.885C385.685 179.903 385.577 180 385.187 180V182C385.885 182 386.592 181.825 387.118 181.299C387.644 180.773 387.819 180.066 387.819 179.367H385.819ZM385.187 180C384.807 180 384.706 179.905 384.691 179.89C384.673 179.872 384.576 179.761 384.576 179.367H382.576C382.576 180.062 382.748 180.768 383.267 181.294C383.788 181.823 384.492 182 385.187 182V180ZM384.576 179.367V166.373H382.576V179.367H384.576ZM384.576 166.373C384.576 164.759 383.981 163.355 382.824 162.216L381.421 163.641C382.202 164.41 382.576 165.303 382.576 166.373H384.576ZM382.83 162.221C381.691 161.083 380.298 160.497 378.7 160.497V162.497C379.757 162.497 380.645 162.865 381.415 163.636L382.83 162.221ZM378.7 160.497C377.092 160.497 375.69 161.081 374.549 162.221L375.963 163.636C376.731 162.868 377.625 162.497 378.7 162.497V160.497ZM374.549 162.221C373.408 163.362 372.825 164.764 372.825 166.373H374.825C374.825 165.298 375.195 164.404 375.963 163.636L374.549 162.221ZM372.825 166.373V179.367H374.825V166.373H372.825ZM372.825 179.367C372.825 179.757 372.728 179.866 372.71 179.885C372.691 179.903 372.582 180 372.192 180V182C372.89 182 373.598 181.825 374.124 181.299C374.65 180.773 374.825 180.066 374.825 179.367H372.825ZM372.192 180C371.802 180 371.693 179.903 371.675 179.885C371.656 179.866 371.559 179.757 371.559 179.367H369.559C369.559 180.066 369.735 180.773 370.26 181.299C370.786 181.825 371.494 182 372.192 182V180ZM371.559 179.367V159.865H369.559V179.367H371.559ZM371.559 159.865C371.559 159.485 371.654 159.384 371.67 159.369C371.688 159.351 371.799 159.254 372.192 159.254V157.254C371.497 157.254 370.792 157.426 370.265 157.945C369.737 158.466 369.559 159.17 369.559 159.865H371.559ZM372.192 159.254C372.586 159.254 372.696 159.351 372.714 159.369C372.73 159.384 372.825 159.485 372.825 159.865H374.825C374.825 159.17 374.648 158.466 374.119 157.945C373.593 157.426 372.887 157.254 372.192 157.254V159.254ZM374.425 160.665C375.68 159.723 377.094 159.254 378.7 159.254V157.254C376.669 157.254 374.832 157.859 373.225 159.065L374.425 160.665ZM378.7 159.254C380.652 159.254 382.308 159.943 383.719 161.354L385.133 159.94C383.354 158.161 381.192 157.254 378.7 157.254V159.254ZM383.722 161.358C385.129 162.751 385.819 164.404 385.819 166.373H387.819C387.819 163.868 386.914 161.704 385.13 159.937L383.722 161.358ZM385.819 166.373V179.367H387.819V166.373H385.819ZM419.699 178.16L420.404 178.869L420.407 178.867L419.699 178.16ZM418.559 150.896L417.852 151.603L417.855 151.606L418.559 150.896ZM417.91 162.951L417.281 162.173L416.183 163.062L417.386 163.803L417.91 162.951ZM416.255 153.177L416.962 152.47L416.962 152.47L416.255 153.177ZM406.325 151.746V150.746H405.325V151.746H406.325ZM406.325 161.497H405.325V162.497H406.325V161.497ZM417.396 166.664L416.684 167.367L416.693 167.375L417.396 166.664ZM406.325 164.74V163.74H405.325V164.74H406.325ZM406.325 177.757H405.325V178.757H406.325V177.757ZM417.396 175.856L416.689 175.149L417.396 175.856ZM421.562 171.249C421.562 173.682 420.713 175.731 418.992 177.452L420.407 178.867C422.503 176.771 423.562 174.213 423.562 171.249H421.562ZM418.995 177.45C417.273 179.158 415.23 180 412.811 180V182C415.759 182 418.308 180.949 420.404 178.869L418.995 177.45ZM412.811 180H404.692V182H412.811V180ZM404.692 180C404.546 180 404.414 179.956 404.259 179.801L402.844 181.215C403.345 181.716 403.974 182 404.692 182V180ZM404.259 179.801C404.103 179.645 404.059 179.514 404.059 179.367H402.059C402.059 180.086 402.344 180.715 402.844 181.215L404.259 179.801ZM404.059 179.367V150.135H402.059V179.367H404.059ZM404.059 150.135C404.059 149.989 404.103 149.858 404.259 149.702L402.844 148.288C402.344 148.788 402.059 149.417 402.059 150.135H404.059ZM404.259 149.702C404.414 149.546 404.546 149.503 404.692 149.503V147.503C403.974 147.503 403.345 147.787 402.844 148.288L404.259 149.702ZM404.692 149.503H412.811V147.503H404.692V149.503ZM412.811 149.503C414.78 149.503 416.442 150.193 417.852 151.603L419.266 150.189C417.485 148.408 415.315 147.503 412.811 147.503V149.503ZM417.855 151.606C419.262 153 419.952 154.653 419.952 156.622H421.952C421.952 154.117 421.047 151.953 419.263 150.185L417.855 151.606ZM419.952 156.622C419.952 158.895 419.077 160.721 417.281 162.173L418.539 163.728C420.799 161.901 421.952 159.507 421.952 156.622H419.952ZM417.386 163.803C420.194 165.53 421.562 167.975 421.562 171.249H423.562C423.562 167.276 421.83 164.189 418.434 162.099L417.386 163.803ZM418.687 156.622C418.687 155.013 418.103 153.611 416.962 152.47L415.548 153.884C416.316 154.652 416.687 155.546 416.687 156.622H418.687ZM416.962 152.47C415.822 151.329 414.42 150.746 412.811 150.746V152.746C413.886 152.746 414.78 153.116 415.548 153.884L416.962 152.47ZM412.811 150.746H406.325V152.746H412.811V150.746ZM405.325 151.746V161.497H407.325V151.746H405.325ZM406.325 162.497H412.811V160.497H406.325V162.497ZM412.811 162.497C414.42 162.497 415.822 161.914 416.962 160.773L415.548 159.359C414.78 160.127 413.886 160.497 412.811 160.497V162.497ZM416.962 160.773C418.103 159.632 418.687 158.23 418.687 156.622H416.687C416.687 157.697 416.316 158.591 415.548 159.359L416.962 160.773ZM420.319 171.249C420.319 169.19 419.569 167.406 418.099 165.952L416.693 167.375C417.787 168.456 418.319 169.729 418.319 171.249H420.319ZM418.107 165.961C416.653 164.49 414.87 163.74 412.811 163.74V165.74C414.331 165.74 415.603 166.273 416.685 167.367L418.107 165.961ZM412.811 163.74H406.325V165.74H412.811V163.74ZM405.325 164.74V177.757H407.325V164.74H405.325ZM406.325 178.757H412.811V176.757H406.325V178.757ZM412.811 178.757C414.866 178.757 416.648 178.018 418.103 176.563L416.689 175.149C415.608 176.229 414.334 176.757 412.811 176.757V178.757ZM418.103 176.563C419.57 175.096 420.319 173.307 420.319 171.249H418.319C418.319 172.769 417.786 174.051 416.689 175.149L418.103 176.563ZM430.231 152.685L430.926 153.403L430.927 153.403L430.231 152.685ZM426.764 152.685L426.057 153.392L426.068 153.403L426.079 153.414L426.764 152.685ZM426.764 149.241L426.057 148.534L426.057 148.534L426.764 149.241ZM430.231 149.241L429.513 149.937L429.523 149.948L429.535 149.959L430.231 149.241ZM429.969 150.963C429.969 151.357 429.837 151.674 429.535 151.967L430.927 153.403C431.608 152.742 431.969 151.911 431.969 150.963H429.969ZM429.535 151.967C429.246 152.246 428.923 152.378 428.509 152.378V154.378C429.436 154.378 430.261 154.048 430.926 153.403L429.535 151.967ZM428.509 152.378C428.094 152.378 427.757 152.246 427.449 151.956L426.079 153.414C426.756 154.049 427.581 154.378 428.509 154.378V152.378ZM427.471 151.978C427.18 151.687 427.048 151.367 427.048 150.963H425.048C425.048 151.901 425.393 152.729 426.057 153.392L427.471 151.978ZM427.048 150.963C427.048 150.559 427.18 150.239 427.471 149.948L426.057 148.534C425.393 149.197 425.048 150.025 425.048 150.963H427.048ZM427.471 149.948C427.783 149.636 428.114 149.503 428.509 149.503V147.503C427.562 147.503 426.729 147.862 426.057 148.534L427.471 149.948ZM428.509 149.503C428.902 149.503 429.219 149.634 429.513 149.937L430.949 148.545C430.288 147.863 429.457 147.503 428.509 147.503V149.503ZM429.535 149.959C429.837 150.252 429.969 150.569 429.969 150.963H431.969C431.969 150.015 431.608 149.184 430.927 148.523L429.535 149.959ZM429.141 159.865V179.367H431.141V159.865H429.141ZM429.141 179.367C429.141 179.757 429.044 179.866 429.026 179.885C429.007 179.903 428.899 180 428.509 180V182C429.207 182 429.914 181.825 430.44 181.299C430.966 180.773 431.141 180.066 431.141 179.367H429.141ZM428.509 180C428.118 180 428.01 179.903 427.991 179.885C427.973 179.866 427.876 179.757 427.876 179.367H425.876C425.876 180.066 426.051 180.773 426.577 181.299C427.103 181.825 427.81 182 428.509 182V180ZM427.876 179.367V159.865H425.876V179.367H427.876ZM427.876 159.865C427.876 159.485 427.971 159.384 427.986 159.369C428.004 159.351 428.115 159.254 428.509 159.254V157.254C427.814 157.254 427.108 157.426 426.582 157.945C426.053 158.466 425.876 159.17 425.876 159.865H427.876ZM428.509 159.254C428.902 159.254 429.013 159.351 429.031 159.369C429.046 159.384 429.141 159.485 429.141 159.865H431.141C431.141 159.17 430.964 158.466 430.435 157.945C429.909 157.426 429.203 157.254 428.509 157.254V159.254ZM437.453 179.099L436.742 179.802L436.75 179.81L437.453 179.099ZM439.757 176.795L439.05 177.502L439.757 176.795ZM442.671 179.367C442.671 179.757 442.574 179.866 442.556 179.885C442.537 179.903 442.428 180 442.038 180V182C442.737 182 443.444 181.825 443.97 181.299C444.496 180.773 444.671 180.066 444.671 179.367H442.671ZM442.038 180C440.532 180 439.255 179.473 438.156 178.388L436.75 179.81C438.216 181.259 439.996 182 442.038 182V180ZM438.165 178.396C437.081 177.299 436.552 176.015 436.552 174.492H434.552C434.552 176.546 435.291 178.334 436.742 179.802L438.165 178.396ZM436.552 174.492V150.135H434.552V174.492H436.552ZM436.552 150.135C436.552 149.745 436.649 149.637 436.668 149.618C436.686 149.6 436.795 149.503 437.185 149.503V147.503C436.487 147.503 435.779 147.678 435.253 148.204C434.728 148.73 434.552 149.437 434.552 150.135H436.552ZM437.185 149.503C437.564 149.503 437.666 149.598 437.681 149.613C437.698 149.631 437.795 149.742 437.795 150.135H439.795C439.795 149.441 439.624 148.735 439.105 148.209C438.583 147.68 437.879 147.503 437.185 147.503V149.503ZM437.795 150.135V174.492H439.795V150.135H437.795ZM437.795 174.492C437.795 175.655 438.224 176.677 439.05 177.502L440.464 176.088C440.008 175.632 439.795 175.117 439.795 174.492H437.795ZM439.05 177.502C439.872 178.325 440.884 178.757 442.038 178.757V176.757C441.433 176.757 440.924 176.548 440.464 176.088L439.05 177.502ZM442.038 178.757C442.432 178.757 442.543 178.854 442.561 178.872C442.576 178.887 442.671 178.988 442.671 179.367H444.671C444.671 178.673 444.494 177.969 443.965 177.448C443.439 176.929 442.733 176.757 442.038 176.757V178.757ZM448.828 179.099L448.117 179.802L448.125 179.81L448.828 179.099ZM451.132 176.795L450.425 177.502L451.132 176.795ZM454.046 179.367C454.046 179.757 453.949 179.866 453.931 179.885C453.912 179.903 453.803 180 453.413 180V182C454.112 182 454.819 181.825 455.345 181.299C455.871 180.773 456.046 180.066 456.046 179.367H454.046ZM453.413 180C451.907 180 450.63 179.473 449.531 178.388L448.125 179.81C449.591 181.259 451.371 182 453.413 182V180ZM449.54 178.396C448.456 177.299 447.927 176.015 447.927 174.492H445.927C445.927 176.546 446.666 178.334 448.117 179.802L449.54 178.396ZM447.927 174.492V150.135H445.927V174.492H447.927ZM447.927 150.135C447.927 149.745 448.024 149.637 448.043 149.618C448.061 149.6 448.17 149.503 448.56 149.503V147.503C447.862 147.503 447.154 147.678 446.628 148.204C446.103 148.73 445.927 149.437 445.927 150.135H447.927ZM448.56 149.503C448.939 149.503 449.041 149.598 449.056 149.613C449.073 149.631 449.17 149.742 449.17 150.135H451.17C451.17 149.441 450.999 148.735 450.48 148.209C449.958 147.68 449.254 147.503 448.56 147.503V149.503ZM449.17 150.135V174.492H451.17V150.135H449.17ZM449.17 174.492C449.17 175.655 449.599 176.677 450.425 177.502L451.839 176.088C451.383 175.632 451.17 175.117 451.17 174.492H449.17ZM450.425 177.502C451.247 178.325 452.259 178.757 453.413 178.757V176.757C452.808 176.757 452.299 176.548 451.839 176.088L450.425 177.502ZM453.413 178.757C453.807 178.757 453.918 178.854 453.936 178.872C453.951 178.887 454.046 178.988 454.046 179.367H456.046C456.046 178.673 455.869 177.969 455.34 177.448C454.814 176.929 454.108 176.757 453.413 176.757V178.757ZM462.731 152.685L463.426 153.403L463.427 153.403L462.731 152.685ZM459.264 152.685L458.557 153.392L458.568 153.403L458.579 153.414L459.264 152.685ZM459.264 149.241L458.557 148.534L458.557 148.534L459.264 149.241ZM462.731 149.241L462.013 149.937L462.023 149.948L462.035 149.959L462.731 149.241ZM462.469 150.963C462.469 151.357 462.337 151.674 462.035 151.967L463.427 153.403C464.108 152.742 464.469 151.911 464.469 150.963H462.469ZM462.035 151.967C461.746 152.246 461.423 152.378 461.009 152.378V154.378C461.936 154.378 462.761 154.048 463.426 153.403L462.035 151.967ZM461.009 152.378C460.594 152.378 460.257 152.246 459.949 151.956L458.579 153.414C459.256 154.049 460.081 154.378 461.009 154.378V152.378ZM459.971 151.978C459.68 151.687 459.548 151.367 459.548 150.963H457.548C457.548 151.901 457.893 152.729 458.557 153.392L459.971 151.978ZM459.548 150.963C459.548 150.559 459.68 150.239 459.971 149.948L458.557 148.534C457.893 149.197 457.548 150.025 457.548 150.963H459.548ZM459.971 149.948C460.283 149.636 460.614 149.503 461.009 149.503V147.503C460.062 147.503 459.229 147.862 458.557 148.534L459.971 149.948ZM461.009 149.503C461.402 149.503 461.719 149.634 462.013 149.937L463.449 148.545C462.788 147.863 461.957 147.503 461.009 147.503V149.503ZM462.035 149.959C462.337 150.252 462.469 150.569 462.469 150.963H464.469C464.469 150.015 464.108 149.184 463.427 148.523L462.035 149.959ZM461.641 159.865V179.367H463.641V159.865H461.641ZM461.641 179.367C461.641 179.757 461.544 179.866 461.526 179.885C461.507 179.903 461.399 180 461.009 180V182C461.707 182 462.414 181.825 462.94 181.299C463.466 180.773 463.641 180.066 463.641 179.367H461.641ZM461.009 180C460.618 180 460.51 179.903 460.491 179.885C460.473 179.866 460.376 179.757 460.376 179.367H458.376C458.376 180.066 458.551 180.773 459.077 181.299C459.603 181.825 460.31 182 461.009 182V180ZM460.376 179.367V159.865H458.376V179.367H460.376ZM460.376 159.865C460.376 159.485 460.471 159.384 460.486 159.369C460.504 159.351 460.615 159.254 461.009 159.254V157.254C460.314 157.254 459.608 157.426 459.082 157.945C458.553 158.466 458.376 159.17 458.376 159.865H460.376ZM461.009 159.254C461.402 159.254 461.513 159.351 461.531 159.369C461.546 159.384 461.641 159.485 461.641 159.865H463.641C463.641 159.17 463.464 158.466 462.935 157.945C462.409 157.426 461.703 157.254 461.009 157.254V159.254ZM480.689 162.929L479.982 163.636L479.987 163.641L480.689 162.929ZM473.823 162.929L474.53 163.636L474.53 163.636L473.823 162.929ZM472.391 159.865H471.391V161.865L472.991 160.665L472.391 159.865ZM482.992 160.647L482.285 161.354L482.289 161.358L482.992 160.647ZM484.386 179.367C484.386 179.757 484.289 179.866 484.27 179.885C484.252 179.903 484.143 180 483.753 180V182C484.451 182 485.159 181.825 485.685 181.299C486.21 180.773 486.386 180.066 486.386 179.367H484.386ZM483.753 180C483.374 180 483.272 179.905 483.257 179.89C483.239 179.872 483.143 179.761 483.143 179.367H481.143C481.143 180.062 481.314 180.768 481.833 181.294C482.355 181.823 483.058 182 483.753 182V180ZM483.143 179.367V166.373H481.143V179.367H483.143ZM483.143 166.373C483.143 164.759 482.548 163.355 481.39 162.216L479.987 163.641C480.768 164.41 481.143 165.303 481.143 166.373H483.143ZM481.396 162.221C480.258 161.083 478.864 160.497 477.267 160.497V162.497C478.324 162.497 479.211 162.865 479.982 163.636L481.396 162.221ZM477.267 160.497C475.658 160.497 474.256 161.081 473.115 162.221L474.53 163.636C475.298 162.868 476.192 162.497 477.267 162.497V160.497ZM473.115 162.221C471.975 163.362 471.391 164.764 471.391 166.373H473.391C473.391 165.298 473.762 164.404 474.53 163.636L473.115 162.221ZM471.391 166.373V179.367H473.391V166.373H471.391ZM471.391 179.367C471.391 179.757 471.294 179.866 471.276 179.885C471.257 179.903 471.149 180 470.759 180V182C471.457 182 472.164 181.825 472.69 181.299C473.216 180.773 473.391 180.066 473.391 179.367H471.391ZM470.759 180C470.368 180 470.26 179.903 470.241 179.885C470.223 179.866 470.126 179.757 470.126 179.367H468.126C468.126 180.066 468.301 180.773 468.827 181.299C469.353 181.825 470.06 182 470.759 182V180ZM470.126 179.367V159.865H468.126V179.367H470.126ZM470.126 159.865C470.126 159.485 470.221 159.384 470.236 159.369C470.254 159.351 470.365 159.254 470.759 159.254V157.254C470.064 157.254 469.358 157.426 468.832 157.945C468.303 158.466 468.126 159.17 468.126 159.865H470.126ZM470.759 159.254C471.152 159.254 471.263 159.351 471.281 159.369C471.296 159.384 471.391 159.485 471.391 159.865H473.391C473.391 159.17 473.214 158.466 472.685 157.945C472.159 157.426 471.453 157.254 470.759 157.254V159.254ZM472.991 160.665C474.246 159.723 475.66 159.254 477.267 159.254V157.254C475.235 157.254 473.399 157.859 471.791 159.065L472.991 160.665ZM477.267 159.254C479.219 159.254 480.874 159.943 482.285 161.354L483.7 159.94C481.92 158.161 479.758 157.254 477.267 157.254V159.254ZM482.289 161.358C483.695 162.751 484.386 164.404 484.386 166.373H486.386C486.386 163.868 485.48 161.704 483.696 159.937L482.289 161.358ZM484.386 166.373V179.367H486.386V166.373H484.386ZM507.024 161.408L507.256 162.381L507.275 162.376L507.294 162.371L507.024 161.408ZM504.9 161.497L504.913 160.497L502.875 160.47L504.101 162.099L504.9 161.497ZM503.513 172.702L502.881 171.927L501.793 172.814L502.987 173.553L503.513 172.702ZM505.28 187.889L504.573 187.181L504.57 187.184L505.28 187.889ZM491.503 187.889L492.21 187.181L492.21 187.181L491.503 187.889ZM493.806 185.585L493.099 186.292L493.099 186.292L493.806 185.585ZM502.976 185.585L502.273 184.874L502.265 184.882L502.976 185.585ZM502.976 176.415L502.265 177.118L502.273 177.126L502.976 176.415ZM492.666 172.121L491.959 172.828L491.962 172.831L492.666 172.121ZM492.666 160.647L493.37 161.358L493.373 161.354L492.666 160.647ZM494.947 162.929L494.24 162.221L494.24 162.221L494.947 162.929ZM494.947 169.817L495.654 169.11L495.654 169.11L494.947 169.817ZM501.836 169.817L501.129 169.11L501.129 169.11L501.836 169.817ZM507.143 159.865C507.143 160.125 507.084 160.236 507.053 160.279C507.027 160.316 506.959 160.388 506.755 160.445L507.294 162.371C507.835 162.219 508.327 161.929 508.673 161.452C509.015 160.981 509.143 160.424 509.143 159.865H507.143ZM506.793 160.435C506.737 160.448 506.564 160.472 506.216 160.487C505.888 160.501 505.455 160.505 504.913 160.497L504.886 162.497C505.447 162.505 505.921 162.501 506.301 162.485C506.661 162.47 506.999 162.442 507.256 162.381L506.793 160.435ZM504.101 162.099C505.059 163.372 505.532 164.786 505.532 166.373H507.532C507.532 164.351 506.917 162.515 505.699 160.896L504.101 162.099ZM505.532 166.373C505.532 168.649 504.663 170.475 502.881 171.927L504.145 173.478C506.389 171.649 507.532 169.255 507.532 166.373H505.532ZM502.987 173.553C505.779 175.28 507.143 177.724 507.143 181H509.143C509.143 177.03 507.42 173.942 504.039 171.852L502.987 173.553ZM507.143 181C507.143 183.417 506.295 185.459 504.573 187.181L505.987 188.596C508.082 186.501 509.143 183.951 509.143 181H507.143ZM504.57 187.184C502.865 188.903 500.825 189.751 498.391 189.751V191.751C501.356 191.751 503.908 190.692 505.99 188.593L504.57 187.184ZM498.391 189.751C495.974 189.751 493.932 188.904 492.21 187.181L490.796 188.596C492.891 190.691 495.441 191.751 498.391 191.751V189.751ZM492.21 187.181C490.488 185.459 489.64 183.417 489.64 181H487.64C487.64 183.951 488.701 186.501 490.796 188.596L492.21 187.181ZM489.64 181C489.64 180.61 489.737 180.501 489.755 180.483C489.774 180.464 489.883 180.367 490.273 180.367V178.367C489.574 178.367 488.867 178.543 488.341 179.068C487.815 179.594 487.64 180.302 487.64 181H489.64ZM490.273 180.367C490.663 180.367 490.772 180.464 490.79 180.483C490.808 180.501 490.905 180.61 490.905 181H492.905C492.905 180.302 492.73 179.594 492.204 179.068C491.678 178.543 490.971 178.367 490.273 178.367V180.367ZM490.905 181C490.905 183.055 491.645 184.837 493.099 186.292L494.514 184.878C493.433 183.798 492.905 182.524 492.905 181H490.905ZM493.099 186.292C494.564 187.757 496.345 188.508 498.391 188.508V186.508C496.889 186.508 495.613 185.977 494.514 184.878L493.099 186.292ZM498.391 188.508C500.45 188.508 502.234 187.759 503.688 186.288L502.265 184.882C501.184 185.976 499.911 186.508 498.391 186.508V188.508ZM503.679 186.296C505.15 184.843 505.9 183.059 505.9 181H503.9C503.9 182.52 503.367 183.793 502.273 184.874L503.679 186.296ZM505.9 181C505.9 178.941 505.15 177.157 503.679 175.704L502.273 177.126C503.367 178.207 503.9 179.48 503.9 181H505.9ZM503.688 175.712C502.234 174.241 500.45 173.492 498.391 173.492V175.492C499.911 175.492 501.184 176.024 502.265 177.118L503.688 175.712ZM498.391 173.492C496.436 173.492 494.78 172.808 493.37 171.41L491.962 172.831C493.742 174.595 495.903 175.492 498.391 175.492V173.492ZM493.373 171.414C491.963 170.004 491.273 168.342 491.273 166.373H489.273C489.273 168.877 490.178 171.047 491.959 172.828L493.373 171.414ZM491.273 166.373C491.273 164.404 491.963 162.751 493.37 161.358L491.962 159.937C490.178 161.704 489.273 163.868 489.273 166.373H491.273ZM493.373 161.354C494.784 159.943 496.44 159.254 498.391 159.254V157.254C495.9 157.254 493.738 158.161 491.959 159.94L493.373 161.354ZM498.391 159.254H506.532V157.254H498.391V159.254ZM506.532 159.254C506.915 159.254 507.018 159.349 507.033 159.364C507.048 159.379 507.143 159.482 507.143 159.865H509.143C509.143 159.174 508.969 158.472 508.447 157.95C507.925 157.428 507.223 157.254 506.532 157.254V159.254ZM504.267 166.373C504.267 164.764 503.683 163.362 502.543 162.221L501.129 163.636C501.896 164.404 502.267 165.298 502.267 166.373H504.267ZM502.543 162.221C501.402 161.081 500 160.497 498.391 160.497V162.497C499.466 162.497 500.361 162.868 501.129 163.636L502.543 162.221ZM498.391 160.497C496.783 160.497 495.381 161.081 494.24 162.221L495.654 163.636C496.422 162.868 497.316 162.497 498.391 162.497V160.497ZM494.24 162.221C493.099 163.362 492.516 164.764 492.516 166.373H494.516C494.516 165.298 494.886 164.404 495.654 163.636L494.24 162.221ZM492.516 166.373C492.516 167.982 493.099 169.384 494.24 170.524L495.654 169.11C494.886 168.342 494.516 167.448 494.516 166.373H492.516ZM494.24 170.524C495.381 171.665 496.783 172.249 498.391 172.249V170.249C497.316 170.249 496.422 169.878 495.654 169.11L494.24 170.524ZM498.391 172.249C500 172.249 501.402 171.665 502.543 170.524L501.129 169.11C500.361 169.878 499.466 170.249 498.391 170.249V172.249ZM502.543 170.524C503.683 169.384 504.267 167.982 504.267 166.373H502.267C502.267 167.448 501.896 168.342 501.129 169.11L502.543 170.524Z" fill="#3B3938"></path></svg>