<svg xmlns="http://www.w3.org/2000/svg" id="Layer_2" data-name="Layer 2" viewBox="0 0 1705.24 2200.43"><defs><style>      .cls-1 {        fill: #1a7fc0;      }      .cls-1, .cls-2 {        stroke-width: 0px;      }      .cls-2 {        fill: #fff;      }    </style></defs><g id="Layer_10" data-name="Layer 10"><g><path class="cls-1" d="m843.81,2200.43l-23.26-11.3c-212.59-103.23-362.04-225.48-449.98-309.87-109.44-105.01-196.11-219.84-257.6-341.3C37.21,1388.35-.79,1227.64.01,1060.3L3.34,365.15l44.18-9.27C351.96,292.04,584.55,192.56,825.24,23.23L858.27,0l32.42,24.07c218.59,162.3,470.59,273.03,770.4,338.53l44.15,9.65-3.32,695.2c-.8,167.34-40.62,328-118.35,477.51-63.08,121.33-151.33,235.83-262.31,340.32-199.13,187.48-412.94,286.73-453.79,304.72l-23.66,10.43ZM114.64,455.62l-2.9,605.21c-1.31,274.27,111.8,522.51,336.18,737.81,78.88,75.69,210.91,184.08,397.93,278.35,143.44-68.17,741.38-389.61,744.34-1010.08l2.9-605.2c-281.9-66.62-523.64-173.08-736.49-324.32-230.54,156.82-456.7,253.83-741.96,318.22Z"></path><g><path class="cls-1" d="m857.06,140.2c-225.97,158.96-448.32,256.18-743.22,318.02-.09,18.85-.59,123.82-2.89,605.08-3.07,642,635.41,955.65,734.53,1003.78,96.06-42.32,742.66-355.62,745.73-997.62,2.3-481.26,2.8-586.23,2.89-605.08-294.3-64.3-535.67-174.67-737.05-324.18Z"></path><path class="cls-2" d="m844.42,2124.38l-21.65-10.52c-197.89-96.09-337.02-209.9-418.88-288.45-101.88-97.76-182.56-204.65-239.8-317.71-70.51-139.28-105.89-288.88-105.14-444.65l3.1-647.1,41.13-8.63c283.39-59.43,499.91-152.04,723.97-309.66l30.74-21.63,30.18,22.41c203.48,151.08,438.06,254.16,717.15,315.13l41.1,8.98-3.09,647.15c-.75,155.78-37.81,305.33-110.17,444.51-58.72,112.94-140.87,219.53-244.18,316.8-185.36,174.52-384.4,266.91-422.42,283.66l-22.03,9.7ZM165.65,500.17l-2.7,563.38c-1.22,255.32,104.07,486.39,312.95,686.82,73.43,70.46,196.33,171.36,370.42,259.11,133.52-63.46,690.13-362.68,692.89-940.26l2.7-563.37c-262.41-62.01-487.45-161.11-685.58-301.9-214.6,145.98-425.13,236.29-690.68,296.23Z"></path></g><g><path class="cls-2" d="m885.27,524.73h-65.14c-136.87,0-248.22,94.59-248.22,210.87h.16v161.65h115.88v-161.65c0-61.99,59.36-112.43,132.34-112.43h64.82c72.97,0,132.34,50.43,132.34,112.43v161.65h115.88v-161.65h.16c0-116.28-111.35-210.87-248.22-210.87Z"></path><path class="cls-2" d="m1249.78,1510.22c0,40.01-34.99,72.44-78.14,72.44h-638.03c-43.16,0-78.14-32.43-78.14-72.44v-495.57c0-40.01,34.98-72.44,78.14-72.44h638.03c43.16,0,78.14,32.43,78.14,72.44v495.57Z"></path><path class="cls-1" d="m763.26,1199.34c0,38.46,26.5,65.88,34.78,73.51,1.71,1.57,3.38,3.2,4.99,4.89,2.87,2.99,5.65,5.6,6.85,6.38,1.56,1,2.04,6.32,1.07,11.8l-20.44,115.87c-.97,5.49,2.48,9.98,7.65,9.98h109.07c5.18,0,8.62-4.48,7.66-9.98l-20.44-115.87c-.97-5.48-.49-10.8,1.07-11.8,1.05-.68,3.32-2.78,5.8-5.3,2.27-2.31,4.63-4.53,7.04-6.68,9.22-8.2,33.8-33.74,33.8-72.8,0-53.27-40.13-96.6-89.46-96.6s-89.45,43.33-89.45,96.6Z"></path></g></g></g></svg>