<svg xmlns="http://www.w3.org/2000/svg" xmlns:xlink="http://www.w3.org/1999/xlink" id="Layer_2" data-name="Layer 2" viewBox="0 0 6613.61 2473.87"><defs><style>      .cls-1 {        fill: url(#linear-gradient);      }      .cls-1, .cls-2, .cls-3, .cls-4, .cls-5, .cls-6, .cls-7, .cls-8, .cls-9, .cls-10, .cls-11, .cls-12 {        stroke-width: 0px;      }      .cls-2 {        fill: url(#linear-gradient-6);      }      .cls-3 {        fill: url(#linear-gradient-5);      }      .cls-13 {        filter: url(#drop-shadow-1);      }      .cls-4 {        fill: #fff;      }      .cls-5 {        fill: url(#linear-gradient-2);      }      .cls-6 {        fill: url(#linear-gradient-7);      }      .cls-7 {        fill: url(#linear-gradient-3);      }      .cls-8 {        fill: url(#linear-gradient-9);      }      .cls-9 {        fill: #ffb700;      }      .cls-10 {        fill: url(#linear-gradient-8);      }      .cls-11 {        fill: #241c00;      }      .cls-12 {        fill: url(#linear-gradient-4);      }    </style><filter id="drop-shadow-1" filterUnits="userSpaceOnUse"><feGaussianBlur stdDeviation="0"></feGaussianBlur></filter><linearGradient id="linear-gradient" x1="1698.08" y1="1867.46" x2="2398.97" y2="1867.46" gradientTransform="translate(96.16 -7.25) rotate(2.81)" gradientUnits="userSpaceOnUse"><stop offset="0" stop-color="#ffdc00"></stop><stop offset=".71" stop-color="#ffd900"></stop><stop offset=".99" stop-color="#ffd500"></stop></linearGradient><linearGradient id="linear-gradient-2" x1="2433.28" y1="1831.43" x2="2995.95" y2="1831.43" xlink:href="#linear-gradient"></linearGradient><linearGradient id="linear-gradient-3" x1="2989" y1="1801.33" x2="3551.67" y2="1801.33" xlink:href="#linear-gradient"></linearGradient><linearGradient id="linear-gradient-4" x1="3544.72" y1="1770.79" x2="4123.47" y2="1770.79" xlink:href="#linear-gradient"></linearGradient><linearGradient id="linear-gradient-5" x1="4127.22" y1="1743.62" x2="4766.04" y2="1743.62" xlink:href="#linear-gradient"></linearGradient><linearGradient id="linear-gradient-6" x1="287.15" y1="1041.12" x2="850.66" y2="1041.12" xlink:href="#linear-gradient"></linearGradient><linearGradient id="linear-gradient-7" x1="442.93" y1="1927.7" x2="2235.49" y2="1927.7" gradientTransform="translate(-271.13 -7.83) rotate(3.53) scale(.79 1) skewX(1.63)" xlink:href="#linear-gradient"></linearGradient><linearGradient id="linear-gradient-8" x1="1386.52" y1="396.66" x2="3179.08" y2="396.66" gradientTransform="translate(-82.06 -7.52) rotate(2.08) scale(1.37 1) skewX(-1.27)" xlink:href="#linear-gradient"></linearGradient><linearGradient id="linear-gradient-9" x1="6688.91" y1="1633.68" x2="8481.46" y2="1633.68" gradientTransform="translate(-271.13 -7.83) rotate(3.53) scale(.79 1) skewX(1.63)" xlink:href="#linear-gradient"></linearGradient></defs><g id="Layer_1-2" data-name="Layer 1"><g class="cls-13"><g><path class="cls-4" d="M1580.72,1382.49l-510.1-5.03,111.38-661.22,207.74,2.05-83.89,496.15,302.84,2.98-27.97,165.07Z"></path><path class="cls-4" d="M1845.12,1385.09l-207.26-2.04,111.36-661.22,207.76,2.05-111.86,661.21Z"></path><path class="cls-4" d="M2204.28,726.32l173.59,251.41,257.03-247.16,174.58,1.72-111.38,661.22-199.94-1.97,58.03-345.22-200.38,189.7-20.97-.21-139.04-193.54-58.03,345.72-199.45-1.97,111.38-661.22,154.59,1.52Z"></path><path class="cls-4" d="M2998.62,1396.46l-207.26-2.04,111.38-661.22,207.74,2.05-111.86,661.21Z"></path><path class="cls-4" d="M3320,907.04l-180.91-1.78,28.48-169.45,577.91,5.69-28.98,169.44-188.73-1.86-82.88,491.77-207.76-2.05,82.88-491.77Z"></path><path class="cls-4" d="M4202.8,1408.33l-512.05-5.05,111.38-661.22,510.58,5.03-27.97,166.52-303.34-2.99-12.96,77.91,275.05,2.71-27.96,165.07-275.06-2.71-14.49,86.66,304.31,3-27.49,165.07Z"></path><path class="cls-4" d="M4274.08,1409.03l111.38-661.22,303.32,2.99c186.78,1.84,294.64,92.63,292.89,269.66-2.49,253.11-152.63,394.04-404.76,391.56l-302.84-2.98ZM4559.82,920.7l-53.88,320.88,89.73.88c102.89,1.01,171.48-79.26,172.61-194.85.84-85.35-46.07-125.31-118.73-126.03l-89.73-.88Z"></path></g><g><path class="cls-1" d="M2104.02,1617.37c183.37-.92,298.56,117,299.42,287.7,1.14,226.29-174.56,393.47-404.27,394.63-184.34.93-300.53-117.49-301.4-289.16-1.14-225.81,176.05-392.02,406.24-393.17ZM2028.48,2113.74c93.64-.47,163.47-78.37,162.95-183.23-.38-75.1-44.05-125.6-115.74-125.24-95.57.48-166.89,76.42-166.36,180.31.39,77.05,45.03,128.53,119.16,128.15Z"></path><path class="cls-5" d="M2626.88,2286.79l-207.26,1.04,101.53-662.8,494.51-2.49-25.49,165.95-286.78,1.44-12.74,83.45,224.34-1.13-25.51,166.45-224.34,1.13-38.26,246.96Z"></path><path class="cls-7" d="M3183.41,2283.99l-207.26,1.04,101.53-662.8,494.51-2.49-25.49,165.95-286.78,1.44-12.74,83.45,224.34-1.13-25.51,166.45-224.34,1.13-38.26,246.96Z"></path><path class="cls-12" d="M4044.74,2279.66l-512.07,2.57,101.53-662.8,510.6-2.57-25.49,166.91-303.35,1.53-11.8,78.09,275.06-1.38-25.5,165.46-275.07,1.38-13.2,86.87,304.32-1.53-25.03,165.46Z"></path><path class="cls-3" d="M4349.19,2094.75l-27.86,183.52-205.31,1.03,101.51-662.8,338.47-1.7c152.64-.77,221.37,89.11,221.93,200.79.62,123.88-72.02,224.22-185.48,258.44,17.22,33.08,49.99,50.95,100.23,50.7,21.46-.11,44.38-1.67,64.83-6.18l-24.1,154.72c-14.6,5.44-51.14,12.95-88.69,13.13-123.4.62-200.73-56.53-242.87-191.91l-52.67.26ZM4395.94,1789.71l-21.72,143,89.74-.45c60.47-.3,101.79-26.84,101.49-85.86-.21-41.93-28.57-57.4-79.77-57.14l-89.74.45Z"></path></g><polygon class="cls-4" points="5227.33 2473.87 1053.35 2467.27 1065.49 2403.25 5239.46 2409.84 5227.33 2473.87"></polygon><polygon class="cls-9" points="5760.45 898.63 5116.57 924.09 5117.84 878.81 5761.72 853.35 5760.45 898.63"></polygon><polygon class="cls-2" points="890.36 1080.4 330.26 1079.52 336.21 1040.67 896.31 1041.56 890.36 1080.4"></polygon><polygon class="cls-6" points="1405.89 2019.2 0 2016.98 14.89 1946.49 1420.78 1948.72 1405.89 2019.2"></polygon><polygon class="cls-10" points="4221.72 539.16 1783.84 535.3 1809.58 464.84 4247.46 468.69 4221.72 539.16"></polygon><polygon class="cls-8" points="6346.71 2029.95 4940.82 2027.73 4955.71 1957.25 6361.6 1959.47 6346.71 2029.95"></polygon><g><circle class="cls-4" cx="5850.81" cy="966.45" r="762.8"></circle><circle class="cls-4" cx="5850.81" cy="966.45" r="658.99" transform="translate(1030.28 4420.21) rotate(-45)"></circle></g><rect class="cls-11" x="5797.83" y="387.63" width="108.58" height="73.77" transform="translate(5413.49 6275.59) rotate(-89.86)"></rect><rect class="cls-11" x="5648.24" y="726.5" width="406.12" height="73.77" transform="translate(5073.78 6612.83) rotate(-89.86)"></rect><polygon class="cls-11" points="5864.74 1004.17 5837.04 935.27 6225.67 817.37 6247.09 887.96 5864.74 1004.17"></polygon><rect class="cls-4" x="5787.32" y="-13.38" width="131.33" height="160.88" transform="translate(5771.8 5919.86) rotate(-89.86)"></rect><rect class="cls-4" x="5136.67" y="265.06" width="160.88" height="131.33" transform="translate(1285.87 3776.44) rotate(-44.86)"></rect><rect class="cls-4" x="6423.39" y="249.8" width="131.33" height="160.88" transform="translate(1656.59 4673.53) rotate(-44.86)"></rect><rect class="cls-4" x="5819.7" y="-105.6" width="66.72" height="278.6" transform="translate(5805.24 5886.66) rotate(-89.86)"></rect><rect class="cls-11" x="5431.65" y="528.03" width="73.77" height="108.58" transform="translate(1181.61 4027.06) rotate(-44.86)"></rect><rect class="cls-11" x="5271.99" y="910.85" width="73.77" height="108.58" transform="translate(4330.91 6271.67) rotate(-89.86)"></rect><rect class="cls-11" x="5412.39" y="1311.85" width="108.58" height="73.77" transform="translate(640.44 4248.92) rotate(-44.86)"></rect><rect class="cls-11" x="5795.21" y="1471.5" width="108.58" height="73.77" transform="translate(4326.99 7354.22) rotate(-89.86)"></rect><rect class="cls-11" x="6196.21" y="1296.29" width="73.77" height="108.58" transform="translate(862.3 4790.07) rotate(-44.86)"></rect><rect class="cls-11" x="6355.86" y="913.47" width="73.77" height="108.58" transform="translate(5409.56 7358.15) rotate(-89.86)"></rect><rect class="cls-11" x="6180.65" y="547.28" width="108.58" height="73.77" transform="translate(1403.47 4568.22) rotate(-44.86)"></rect><circle class="cls-11" cx="5853.32" cy="966.46" r="39.4" transform="translate(-13.03 82.56) rotate(-.81)"></circle></g></g></svg>